<svg xmlns="http://www.w3.org/2000/svg" xmlns:xlink="http://www.w3.org/1999/xlink" version="1.1" id="Layer_1" x="0px" y="0px" preserveAspectRatio="xMinYMin meet" viewBox="0 0 124.011 257.997" enable-background="new 0 0 124.011 257.997" xml:space="preserve">
<path fill="none" d="M62.88,227.946c-5.974,0-10.816,4.831-10.816,10.789c0,5.959,4.842,10.789,10.816,10.789  s10.816-4.83,10.816-10.789C73.696,232.777,68.854,227.946,62.88,227.946z M62.88,248.247c-5.257,0-9.534-4.266-9.534-9.511  c0-5.244,4.277-9.511,9.534-9.511s9.534,4.267,9.534,9.511C72.414,243.98,68.138,248.247,62.88,248.247z"/>
<polygon fill="none" points="0.752,82.604 1.033,82.322 1.431,82.322 1.909,82.322 1.909,71.933 1.431,71.933 1.033,71.933  0.752,71.651 0.271,71.172 0,70.902 0,83.353 0.271,83.083 "/>
<polygon fill="none" points="0.752,61.344 1.033,61.062 1.431,61.062 1.909,61.062 1.909,50.513 1.431,50.513 1.033,50.513  0.752,50.231 0.271,49.752 0,49.482 0,62.093 0.271,61.823 "/>
<path fill="none" d="M11.524,222.191h102.552c0.709,0,1.282-0.572,1.282-1.279V39.324c0-0.707-0.573-1.279-1.282-1.279H11.524  c-0.708,0-1.282,0.572-1.282,1.279v181.588C10.242,221.619,10.816,222.191,11.524,222.191z"/>
<path fill="#fff" d="M62.88,229.224c-5.257,0-9.534,4.267-9.534,9.511c0,5.245,4.277,9.511,9.534,9.511s9.534-4.266,9.534-9.511  C72.414,233.492,68.138,229.224,62.88,229.224z"/>
<path fill="#fff" d="M0.752,92.911l0.281,0.281h0.398h0.479v146.26c0,4.954,1.936,9.611,5.452,13.114  c3.515,3.502,8.187,5.431,13.157,5.431h84.883c4.97,0,9.643-1.929,13.157-5.431c3.516-3.502,5.452-8.16,5.452-13.114V20.783  c0-4.954-1.936-9.611-5.452-13.115c-3.515-3.501-8.187-5.43-13.157-5.43h-1.581V1.439V0.966l-0.376-0.288l-0.626-0.48L102.56,0  h-0.326H84.152h-0.256l-0.222,0.127l-0.84,0.479l-0.484,0.277v0.557v0.799h-61.83c-4.97,0-9.643,1.929-13.157,5.43  c-3.516,3.503-5.452,8.161-5.452,13.115v16.143H1.431H1.033l-0.281,0.28l-0.481,0.48L0,37.956v11.526l0.271,0.27l0.481,0.479  l0.281,0.281h0.398h0.479v10.55H1.431H1.033l-0.281,0.281l-0.481,0.48L0,62.093v8.81l0.271,0.27l0.481,0.479l0.281,0.281h0.398  h0.479v10.39H1.431H1.033l-0.281,0.281l-0.481,0.48L0,83.353v8.809l0.271,0.27L0.752,92.911z M62.88,249.525  c-5.974,0-10.816-4.83-10.816-10.789c0-5.958,4.842-10.789,10.816-10.789s10.816,4.831,10.816,10.789  C73.696,244.695,68.854,249.525,62.88,249.525z M10.242,39.324c0-0.707,0.574-1.279,1.282-1.279h102.552  c0.709,0,1.282,0.572,1.282,1.279v181.588c0,0.707-0.573,1.279-1.282,1.279H11.524c-0.708,0-1.282-0.572-1.282-1.279V39.324z"/>
</svg>