<?xml version="1.0" encoding="utf-8"?>
<!-- Generator: Adobe Illustrator 17.0.0, SVG Export Plug-In . SVG Version: 6.00 Build 0)  -->
<!DOCTYPE svg PUBLIC "-//W3C//DTD SVG 1.1//EN" "http://www.w3.org/Graphics/SVG/1.1/DTD/svg11.dtd">
<svg version="1.1" id="Layer_1" xmlns="http://www.w3.org/2000/svg" xmlns:xlink="http://www.w3.org/1999/xlink" x="0px" y="0px"
	 width="127.926px" height="31.574px" viewBox="-51.406 -16.36 127.926 31.574"
	 enable-background="new -51.406 -16.36 127.926 31.574" xml:space="preserve">
<path opacity="0.9" fill="#BCBCBC" enable-background="new    " d="M55.98,3.188c2.448,2.531-1.381,6.277-3.894,3.839
	C49.536,4.558,53.549,0.669,55.98,3.188C56.485,3.71,55.475,2.664,55.98,3.188z M75.52,1.684c0.644,0,0.976,0.631,1,1.894
	c0,2.462-1.459,3.693-4.377,3.693H60.392c-0.482,0-0.724-0.217-0.724-0.654v-2.94c0-0.457,0.242-0.686,0.724-0.686h11.027
	c0.896,0,1.39-0.305,1.482-0.916c0-0.262,0.218-0.391,0.654-0.391C73.555,1.684,75.52,1.684,75.52,1.684z"/>
<path opacity="0.9" fill="#BCBCBC" enable-background="new    " d="M62.878-2.357c-2.15-2.333-2.536-6.113-1.568-9.049
	c1.06-3.214,3.974-4.887,7.254-4.887c3.165,0,6.039,1.547,7.187,4.608c1.118,2.982,0.736,6.939-1.483,9.328
	c-1.368,1.471-3.269,2.206-5.703,2.206C66.128-0.152,64.233-0.886,62.878-2.357z M71.838-8.222c0-1.488-0.287-3.352-1.796-4.053
	c-1.229-0.572-2.988-0.374-3.872,0.715c-1.059,1.306-1.053,3.498-0.718,5.056c0.346,1.605,1.443,2.629,3.112,2.629
	C70.746-3.877,71.838-5.325,71.838-8.222z"/>
<path opacity="0.9" fill="#EEEEEE" enable-background="new    " d="M-35.485,6.375c0,1.277-2.356,1.022-3.11,0.865
	c-1.216-0.252-2.035-1.081-2.192-2.324c-1.737,2.845-6.638,3.339-9.167,1.313c-1.6-1.28-1.953-3.853-0.681-5.496
	c1.287-1.664,3.774-1.882,5.708-1.882h3.626v-1.882c0-2.201-2.672-3.241-4.379-1.881c-0.694,0.555-0.688,1.345-0.547,2.141
	c0,0.238-0.24,0.357-0.718,0.357h-2.462c-2.036,0-0.694-3.696,0.05-4.452c1.519-1.544,3.916-1.813,5.97-1.772
	c1.673,0.033,3.502,0.325,4.823,1.441c1.27,1.072,1.71,2.72,1.71,4.329v5.384c0,0.779,0.285,1.243,0.855,1.394
	c0.341,0.087,0.513,0.303,0.513,0.649L-35.485,6.375C-35.486,6.375-35.485,6.375-35.485,6.375z M-41.3,1.089h-3.215
	c-0.692,0-1.577,0.071-2.059,0.644c-0.505,0.6-0.364,1.582,0.263,2.033c1.453,1.042,4.07,0.139,4.772-1.443l0.24-0.616
	C-41.3,1.707-41.3,1.089-41.3,1.089z"/>
<path opacity="0.9" fill="#EEEEEE" enable-background="new    " d="M-31.586-3.808c0-0.757-0.274-1.2-0.821-1.33
	c-0.365-0.13-0.547-0.378-0.547-0.746v-1.818c0-1.148,2.158-0.95,2.84-0.846c1.239,0.191,2.166,0.943,2.394,2.207v0.389
	c0.892-2.507,3.888-2.956,6.207-2.597c3.071,0.475,4.534,3.172,4.534,6.1v4.995c0,0.757,0.262,1.2,0.787,1.33
	c0.388,0.151,0.581,0.389,0.581,0.714v1.817c0,1.464-3.086,0.941-3.878,0.605c-1.514-0.646-1.972-2.259-1.972-3.784v-5.286
	c0-0.865-0.233-1.557-0.701-2.076c-1.046-1.163-3.248-1.025-4.189,0.195c-0.502,0.649-0.764,1.373-0.787,2.173v8.271
	c0,0.454-0.228,0.681-0.684,0.681H-30.9c-0.456,0-0.684-0.227-0.684-0.681V-3.808H-31.586z"/>
<path opacity="0.9" fill="#EEEEEE" enable-background="new    " d="M-3.535,5.11c3.288,0,7.049,1.496,6.602,5.408
	c-0.405,3.559-4.12,4.514-7.12,4.654c-2.668,0.124-6.324,0.105-8.386-1.913c-2.005-1.963-1.266-5.011,0.865-6.526
	c-0.254-0.243-0.505-0.463-0.735-0.73c-0.103-0.118-0.182-0.233-0.24-0.341c-0.057-0.108-0.119-0.233-0.188-0.373
	c-0.069-0.141-0.119-0.291-0.154-0.454c-0.33-1.585,0.642-2.948,2.103-3.454c-2.067-1.785-2.57-4.88-0.973-7.165
	c1.66-2.374,4.999-3.182,7.73-2.744c0.467,0.076,0.735,0.113,0.803,0.113c0.89,0.043,1.693-0.195,2.412-0.714
	c0.718-0.519,1.101-1.092,1.146-1.719c0.023-0.324,0.251-0.464,0.684-0.421l2.052,0.26c0.319,0.065,0.479,0.216,0.479,0.454
	C3.5-9.495,3.1-8.663,2.348-8.058c-0.753,0.606-1.619,0.94-2.6,1.005C2.278-5.42,3.04-1.87,1.246,0.622
	c-1.999,2.775-6.137,3.382-9.194,2.346c-0.713,0-1.608,0.193-1.608,1.07c0,0.918,1.029,1.07,1.744,1.07L-3.535,5.11L-3.535,5.11z
	 M-7.572,8.095c-1.358,0-2.592,0.902-2.111,2.413c0.524,1.642,3.307,1.464,4.612,1.444c1.216-0.019,3.432,0.036,4.027-1.333
	c0.745-1.714-0.941-2.524-2.355-2.524C-3.399,8.095-7.572,8.095-7.572,8.095z M-2.851-4.57C-4.058-5.565-6.14-5.611-7.428-4.743
	c-1.41,0.951-1.519,3.071-0.229,4.178c1.26,1.081,3.54,1.067,4.805,0c0.616-0.519,0.924-1.189,0.924-2.01
	C-1.927-3.397-2.234-4.063-2.851-4.57z"/>
<path opacity="0.9" fill="#EEEEEE" enable-background="new    " d="M17.486,6.456c-2.998,1.67-7.494,1.2-9.988-1.167
	C4.496,2.444,4.482-3.524,7.276-6.517C9.495-8.892,14-9.353,16.834-7.871c1.189,0.621,2.043,1.672,2.522,2.917
	c0.264,0.686,0.423,1.411,0.512,2.14c0.079,0.646,0.359,1.959-0.057,2.524c-0.103,0.141-0.314,0.211-0.633,0.211H9.806v0.162
	c0.023,1.319,0.467,2.286,1.334,2.903c2.023,1.438,4.565,1.072,6.328-0.599c0.319-0.303,0.57-0.346,0.753-0.13l1.574,1.524
	c0.251,0.238,0.285,0.476,0.103,0.714C19.396,5.187,18.592,5.84,17.486,6.456 M15.724-2.447c0-1.609-0.838-2.757-2.5-2.847
	c-1.868-0.101-3.014,1.057-3.315,2.847C9.909-2.447,15.724-2.447,15.724-2.447z"/>
<path opacity="0.9" fill="#EEEEEE" enable-background="new    " d="M29.579,6.408c0,0.606-0.661,0.919-1.984,0.94
	c-2.577,0-3.865-1.373-3.865-4.119v-18.908c0-0.454,0.228-0.681,0.684-0.681h3.113c0.456,0,0.684,0.238,0.684,0.714V2.548
	c0,0.735,0.24,1.168,0.719,1.298c0.141,0.063,0.284,0.123,0.428,0.179c0.057,0.033,0.108,0.097,0.154,0.195
	c0.045,0.098,0.068,0.211,0.068,0.341L29.579,6.408L29.579,6.408z"/>
<path opacity="0.9" fill="#EEEEEE" enable-background="new    " d="M48.188,6.375c0,1.277-2.356,1.022-3.11,0.865
	c-1.216-0.252-2.035-1.081-2.192-2.324c-1.974,3.233-8.86,3.657-10.354-0.278c-0.544-1.433-0.249-3.272,0.897-4.331
	c1.383-1.279,3.531-1.457,5.319-1.457h3.626v-1.882c0-2.201-2.672-3.241-4.379-1.881c-0.694,0.555-0.688,1.345-0.547,2.141
	c0,0.238-0.24,0.357-0.718,0.357h-2.463c-2.036,0-0.694-3.696,0.05-4.452c1.519-1.544,3.916-1.813,5.97-1.772
	c1.673,0.033,3.502,0.325,4.823,1.441c1.27,1.072,1.71,2.72,1.71,4.329v5.384c0,0.779,0.285,1.243,0.855,1.394
	c0.343,0.087,0.513,0.303,0.513,0.649L48.188,6.375L48.188,6.375z M42.372,1.089h-3.215c-0.692,0-1.577,0.071-2.059,0.644
	c-0.505,0.6-0.364,1.582,0.263,2.033c1.453,1.042,4.07,0.139,4.772-1.443l0.24-0.616C42.372,1.707,42.372,1.089,42.372,1.089z"/>
</svg>
