<?xml version="1.0" standalone="no"?>
<!DOCTYPE svg PUBLIC "-//W3C//DTD SVG 1.1//EN" "http://www.w3.org/Graphics/SVG/1.1/DTD/svg11.dtd" >
<svg xmlns="http://www.w3.org/2000/svg" xmlns:xlink="http://www.w3.org/1999/xlink" version="1.1">
<metadata>
Created by FontForge 20150824 at Fri Feb 26 07:13:35 2016
 By Everything Fonts
Copyright (c) 2011 Fabian Leuenberger and EuropaType. All rights reserved. This Font Software may not be reproduced, modified, disclosed or transferred without the express written approval of EuropaType. EUROPA is a trademark of EuropaType and may be registered in certain jurisdictions. This Font Software is original artwork of Fabian Leuenberger and EuropaType. The design may be protected in certain jurisdictions.
</metadata>
<defs>
<font id="EuropaBold" horiz-adv-x="520" >
  <font-face 
    font-family="EuropaBold"
    font-weight="700"
    font-stretch="normal"
    units-per-em="1000"
    panose-1="2 0 0 0 0 0 0 0 0 0"
    ascent="756"
    descent="-244"
    x-height="474"
    cap-height="700"
    bbox="-180 -275 1000 992"
    underline-thickness="38"
    underline-position="-77"
    unicode-range="U+0020-2122"
  />
<missing-glyph horiz-adv-x="294" 
 />
    <glyph glyph-name=".notdef" horiz-adv-x="294" 
 />
    <glyph glyph-name=".null" horiz-adv-x="0" 
 />
    <glyph glyph-name="nonmarkingreturn" horiz-adv-x="333" 
 />
    <glyph glyph-name="space" unicode=" " horiz-adv-x="294" 
 />
    <glyph glyph-name="space" unicode="&#xa0;" horiz-adv-x="294" 
 />
    <glyph glyph-name="exclam" unicode="!" horiz-adv-x="306" 
d="M74 67q0 33 23 56t56 23t56 -23t23 -56t-23 -56t-56 -23t-56 23t-23 56zM210 200h-114l-5 500h124z" />
    <glyph glyph-name="quotedbl" unicode="&#x22;" horiz-adv-x="400" 
d="M234 700h106v-248h-106v248zM60 700h106v-248h-106v248z" />
    <glyph glyph-name="numbersign" unicode="#" horiz-adv-x="634" 
d="M258 298h109l17 120h-109zM69 506h129l30 211l87 -12l-28 -199h109l30 211l87 -12l-28 -199h117v-88h-129l-17 -120h116v-88h-128l-32 -227l-88 12l30 215h-108l-32 -227l-88 12l30 215h-117v88h130l17 120h-117v88z" />
    <glyph glyph-name="dollar" unicode="$" horiz-adv-x="580" 
d="M194 512q0 -30 19.5 -50t57.5 -37v171q-35 -8 -56 -30t-21 -54zM420 186q0 33 -22 54t-64 38v-175q33 6 59.5 25t26.5 58zM271 -11q-40 3 -75.5 17t-65.5 33.5t-53 43t-36 46.5l93 74q9 -16 23 -32.5t31.5 -30t38.5 -24t44 -14.5v199q-34 12 -69.5 30t-64 43t-47 58.5
t-18.5 77.5q0 36 13.5 70t39 61t62.5 45.5t84 23.5v84h63v-84q30 -3 58.5 -13t53.5 -24.5t45 -31t33 -33.5l-90 -75q-14 19 -41 37t-59 26v-196q3 -2 6 -2.5t5 -1.5q37 -14 72.5 -31t63.5 -41.5t44.5 -58t16.5 -79.5q0 -47 -17 -81.5t-45.5 -58.5t-66.5 -38t-79 -18v-84h-63
v83z" />
    <glyph glyph-name="percent" unicode="%" horiz-adv-x="712" 
d="M528 65q35 0 58 23.5t23 58.5t-23 58.5t-58 23.5q-36 0 -59 -23.5t-23 -58.5t23 -58.5t59 -23.5zM528 306q33 0 62.5 -12.5t51.5 -34t35 -50.5t13 -62t-13 -62t-35 -50.5t-51.5 -34t-62.5 -12.5t-62.5 12.5t-51.5 34t-35 50.5t-13 62t13 62t35 50.5t51.5 34t62.5 12.5z
M184 471q35 0 58 23.5t23 58.5t-23 58.5t-58 23.5q-36 0 -59 -23.5t-23 -58.5t23 -58.5t59 -23.5zM184 712q33 0 62.5 -12.5t51.5 -34t35 -50.5t13 -62t-13 -62t-35 -50.5t-51.5 -34t-62.5 -12.5t-62.5 12.5t-51.5 34t-35 50.5t-13 62t13 62t35 50.5t51.5 34t62.5 12.5z
M560 731l57 -39l-471 -724l-57 39z" />
    <glyph glyph-name="ampersand" unicode="&#x26;" horiz-adv-x="695" 
d="M210 533q0 -26 18.5 -46.5t53.5 -53.5q25 21 40.5 36.5t23.5 26.5t10.5 19.5t2.5 16.5q0 33 -24 51.5t-51 18.5q-28 0 -51 -19t-23 -50zM289 98q43 0 82 17.5t63 41.5l-159 139l-52 -44q-19 -18 -30 -30.5t-15 -22t-4 -20.5q0 -20 10 -35t26 -25.5t36.5 -15.5t42.5 -5z
M622 384q0 -79 -13 -136t-28 -78l114 -100l-70 -82l-107 95q-37 -42 -97.5 -68.5t-131.5 -26.5q-53 0 -96 15.5t-74 41.5t-48 60t-17 72q0 23 7 45.5t23.5 45.5t43 47.5t64.5 53.5q-55 50 -76.5 88t-21.5 78q0 35 14 67t39 56.5t60.5 39t77.5 14.5t77.5 -14.5t60.5 -39
t39 -57t14 -69.5q0 -21 -5.5 -39.5t-18 -38t-34.5 -42t-55 -50.5l129 -114q4 5 6.5 19t4.5 33t3 41t1 43h115z" />
    <glyph glyph-name="quotesingle" unicode="'" horiz-adv-x="186" 
d="M40 700h106v-246h-106v246z" />
    <glyph glyph-name="parenleft" unicode="(" horiz-adv-x="312" 
d="M166 295q0 -65 11.5 -124.5t30 -111.5t41.5 -95t45 -74l-98 -60q-26 36 -52.5 86t-47.5 109.5t-34.5 127.5t-13.5 142q0 72 13 139.5t34 127t47.5 109.5t53.5 88l98 -59q-22 -31 -45 -74t-41.5 -95t-30 -112t-11.5 -124z" />
    <glyph glyph-name="parenright" unicode=")" horiz-adv-x="312" 
d="M146 295q0 64 -11.5 124t-30 112t-41.5 95t-45 74l98 59q27 -38 53.5 -88t47.5 -109.5t34 -127t13 -139.5q0 -74 -13.5 -142t-34.5 -127.5t-47.5 -109.5t-52.5 -86l-98 60q22 31 45 74t41.5 95t30 111.5t11.5 124.5z" />
    <glyph glyph-name="asterisk" unicode="*" horiz-adv-x="398" 
d="M125 348l-69 49l77 105l-127 40l27 79l124 -41v132h84v-132l124 41l27 -79l-127 -40l77 -105l-69 -49l-74 105z" />
    <glyph glyph-name="plus" unicode="+" 
d="M497 190h-177v-190h-120v190h-177v112h177v184h120v-184h177v-112z" />
    <glyph glyph-name="comma" unicode="," horiz-adv-x="241" 
d="M199 62l-87 -233l-92 32l79 236z" />
    <glyph glyph-name="hyphen" unicode="-" horiz-adv-x="333" 
d="M33 304h267v-114h-267v114z" />
    <glyph glyph-name="period" unicode="." horiz-adv-x="262" 
d="M52 67q0 33 23 56t56 23t56 -23t23 -56t-23 -56t-56 -23t-56 23t-23 56z" />
    <glyph glyph-name="slash" unicode="/" 
d="M102 -141l-96 43l400 898l96 -43z" />
    <glyph glyph-name="zero" unicode="0" horiz-adv-x="606" 
d="M304 100q36 0 63 20t44.5 54t26 79.5t8.5 96.5t-8.5 96.5t-26 79.5t-44.5 54t-63 20t-63 -20t-45 -54t-27 -79.5t-9 -96.5t9 -96.5t27 -79.5t45 -54t63 -20zM304 712q67 0 116 -30t81.5 -80t48.5 -115.5t16 -136.5t-16 -136.5t-48.5 -115.5t-81.5 -80t-116 -30t-116.5 30
t-82.5 80t-49 115.5t-16 136.5t16 136.5t49 115.5t82.5 80t116.5 30z" />
    <glyph glyph-name="one" unicode="1" horiz-adv-x="444" 
d="M229 700h99v-700h-120v540l-123 -98l-69 88z" />
    <glyph glyph-name="two" unicode="2" horiz-adv-x="555" 
d="M297 326q9 12 23 28.5t27 37t22 45t9 52.5q0 46 -27.5 78.5t-78.5 32.5q-48 0 -80 -29.5t-43 -72.5l-107 39q10 32 29 63.5t47.5 56t68 40t90.5 15.5q55 0 96 -17.5t69 -47.5t42 -69.5t14 -82.5q0 -32 -7 -59.5t-16.5 -49.5t-20 -38.5t-17.5 -25.5l-161 -208h225v-114
h-461z" />
    <glyph glyph-name="three" unicode="3" horiz-adv-x="570" 
d="M386 498q0 47 -29 74.5t-76 27.5q-24 0 -43.5 -7.5t-34 -19.5t-25 -27t-16.5 -31l-104 49q11 26 30 52.5t46.5 47.5t64 34.5t83.5 13.5q48 0 89 -15t71 -42t47.5 -65t17.5 -83q0 -32 -8 -56t-20.5 -42.5t-28 -31.5t-29.5 -22q20 -6 38.5 -19.5t33 -33t23 -46t8.5 -59.5
q0 -49 -18.5 -87.5t-51.5 -65.5t-77 -41.5t-95 -14.5t-91.5 14t-71 36.5t-51 52t-31.5 59.5l98 57q7 -19 19 -38t30 -34.5t42.5 -25t57.5 -9.5q55 0 87.5 26.5t32.5 71.5q0 26 -11 44t-29 29.5t-40.5 17t-46.5 5.5h-50v110h38q55 0 88 22.5t33 71.5z" />
    <glyph glyph-name="four" unicode="4" horiz-adv-x="593" 
d="M368 264v271l-176 -271h176zM352 700h134v-436h77v-112h-77v-152h-120v152h-370z" />
    <glyph glyph-name="five" unicode="5" horiz-adv-x="585" 
d="M542 233q0 -63 -22 -109.5t-57.5 -76.5t-80.5 -44.5t-91 -14.5q-47 0 -85.5 13.5t-69 36t-53 51.5t-35.5 61l100 57q8 -21 21.5 -40.5t31.5 -34t41 -23.5t52 -9q30 0 53.5 10t40 27.5t25 41.5t8.5 52q0 56 -35.5 92.5t-109.5 36.5q-59 0 -108.5 -21t-83.5 -44v405h450
v-114h-330v-132q18 7 43.5 11.5t54.5 4.5q47 0 90.5 -14.5t76.5 -44t53 -74t20 -104.5z" />
    <glyph glyph-name="six" unicode="6" horiz-adv-x="564" 
d="M284 350q-26 0 -48.5 -9t-39.5 -25t-26.5 -39.5t-9.5 -51.5q0 -29 9.5 -52t26.5 -39t39.5 -25t48.5 -9t48.5 9t39.5 25t26.5 39t9.5 52q0 28 -9.5 51.5t-26.5 39.5t-39.5 25t-48.5 9zM268 459q7 2 13 2.5t16 0.5q51 0 94 -20.5t73.5 -53.5t47.5 -75.5t17 -87.5t-17 -87.5
t-49 -75.5t-77.5 -53.5t-101.5 -20.5t-101.5 20t-77.5 53t-49 75.5t-17 87.5q0 44 13 82.5t26 61.5l24 40l50 83l68 113l78 128l100 -62z" />
    <glyph glyph-name="seven" unicode="7" horiz-adv-x="526" 
d="M36 700h500l-375 -724l-102 53l288 557h-311v114z" />
    <glyph glyph-name="eight" unicode="8" horiz-adv-x="576" 
d="M389 509q0 43 -29.5 68t-71.5 25t-71.5 -25t-29.5 -68t29.5 -68t71.5 -25t71.5 25t29.5 68zM288 98q30 0 52 9t37 24.5t22.5 35.5t7.5 41t-7.5 40.5t-22.5 34.5t-37 24t-52 9t-52 -9t-37 -24t-22.5 -34.5t-7.5 -40.5t7.5 -41t22.5 -35.5t37 -24.5t52 -9zM288 712
q55 0 96 -17t68.5 -45t41.5 -64t14 -73q0 -27 -7 -49t-18 -39t-25 -30.5t-28 -22.5q16 -8 33.5 -21.5t32 -34t23.5 -48t9 -61.5q0 -44 -16 -84t-47 -70t-75.5 -47.5t-101.5 -17.5t-101.5 17.5t-75.5 47.5t-47 70t-16 84q0 34 9 61.5t23.5 48t31.5 34t34 21.5q-14 9 -28 22.5
t-25 30.5t-18 39t-7 49q0 37 14 73t41.5 64t68.5 45t96 17z" />
    <glyph glyph-name="nine" unicode="9" horiz-adv-x="564" 
d="M280 350q26 0 48.5 9t39.5 25t26.5 39t9.5 52q0 28 -9.5 51.5t-26.5 39.5t-39.5 25t-48.5 9t-48.5 -9t-39.5 -25t-26.5 -39.5t-9.5 -51.5q0 -29 9.5 -52t26.5 -39t39.5 -25t48.5 -9zM296 241q-7 -2 -13 -2.5t-16 -0.5q-51 0 -94 20.5t-73.5 53.5t-47.5 75.5t-17 87.5
t17 87.5t49 75.5t77.5 53.5t101.5 20.5t101.5 -20.5t77.5 -53.5t49 -75t17 -86q0 -43 -13 -82t-27 -63l-25 -42l-50 -84l-68 -111l-74 -123l-100 62z" />
    <glyph glyph-name="colon" unicode=":" horiz-adv-x="274" 
d="M58 407q0 33 23 56t56 23t56 -23t23 -56t-23 -56t-56 -23t-56 23t-23 56zM58 67q0 33 23 56t56 23t56 -23t23 -56t-23 -56t-56 -23t-56 23t-23 56z" />
    <glyph glyph-name="semicolon" unicode=";" horiz-adv-x="243" 
d="M42 406q0 33 23.5 56.5t55.5 23.5q33 0 56.5 -23.5t23.5 -56.5q0 -32 -23.5 -55.5t-56.5 -23.5q-32 0 -55.5 23.5t-23.5 55.5zM199 62l-87 -233l-92 32l79 236z" />
    <glyph glyph-name="less" unicode="&#x3c;" 
d="M18 321l462 197v-123l-303 -124l303 -125v-123l-462 198v100z" />
    <glyph glyph-name="equal" unicode="=" 
d="M45 412h430v-110h-430v110zM45 226h430v-110h-430v110z" />
    <glyph glyph-name="greater" unicode="&#x3e;" 
d="M506 221l-462 -198v123l303 125l-303 124v123l462 -197v-100z" />
    <glyph glyph-name="question" unicode="?" horiz-adv-x="489" 
d="M163 67q0 33 23 56t56 23t56 -23t23 -56t-23 -56t-56 -23t-56 23t-23 56zM329 507q0 42 -28 66.5t-66 24.5q-21 0 -39 -8t-33 -21t-26.5 -30.5t-18.5 -36.5l-102 47q10 30 29 59.5t46.5 52.5t63 37t80.5 14t84.5 -15.5t68 -42.5t45 -64.5t16.5 -81.5q0 -32 -8.5 -56.5
t-23.5 -45.5t-35 -40.5t-44 -40.5l-20 -19q-8 -7 -11.5 -13.5t-4.5 -15t-1 -21.5v-51h-119v74q0 24 5 40.5t15.5 30.5t28.5 28l41 36q23 20 40 40.5t17 52.5z" />
    <glyph glyph-name="at" unicode="@" horiz-adv-x="799" 
d="M399 232q35 0 55.5 13.5t30.5 27.5v29q-11 11 -32 19.5t-51 8.5q-36 0 -54.5 -13.5t-18.5 -34.5q0 -22 18 -36t52 -14zM602 35q-31 -17 -79.5 -32t-108.5 -15q-77 0 -143.5 28.5t-116 77.5t-78 115t-28.5 141t28.5 141t77.5 115t115.5 77.5t143.5 28.5q74 0 136 -27
t107 -74.5t70 -113t25 -142.5q0 -61 -15 -100.5t-37 -62t-48 -31.5t-48 -9q-31 0 -61.5 15.5t-40.5 50.5q-18 -28 -50 -47t-73 -19q-27 0 -52 9t-44.5 25.5t-31 40t-11.5 52.5t12 52.5t32 40t46 25.5t53 9q29 0 57 -9t46 -25v17q0 20 -7.5 34.5t-19.5 24t-27.5 14t-30.5 4.5
q-22 0 -49.5 -8.5t-53.5 -28.5l-40 72q26 18 64.5 32.5t84.5 14.5q36 0 66 -10t51.5 -29t34 -46t12.5 -60v-121q0 -25 8 -38.5t31 -13.5q4 0 13 2t18.5 13.5t16.5 35.5t7 68q0 69 -19.5 121t-53 87.5t-79.5 53t-99 17.5q-60 0 -110.5 -21.5t-88 -59t-58.5 -88t-21 -109.5
q0 -58 21 -109t58 -88.5t88.5 -59t112.5 -21.5q51 0 90 12.5t62 25.5z" />
    <glyph glyph-name="A" unicode="A" horiz-adv-x="678" 
d="M234 276h210l-105 273zM278 700h122l272 -700h-121l-64 166h-296l-64 -166h-121z" />
    <glyph glyph-name="B" unicode="B" horiz-adv-x="590" 
d="M297 414q50 0 77.5 19.5t27.5 64.5q0 48 -30 68t-75 20h-103v-172h103zM322 114q50 0 83 21.5t33 71.5t-33 71.5t-83 21.5h-128v-186h128zM74 700h227q43 0 83 -11t71 -34.5t50 -59.5t19 -86q0 -36 -9 -61t-21.5 -41t-24.5 -24.5t-18 -11.5q4 -1 21.5 -9t37 -27t35 -50
t15.5 -77q0 -47 -18 -85.5t-49.5 -65.5t-74.5 -42t-92 -15h-252v700z" />
    <glyph glyph-name="C" unicode="C" horiz-adv-x="676" 
d="M390 100q63 0 111.5 26.5t76.5 59.5l80 -79q-19 -23 -46 -44t-61 -38t-75 -27t-87 -10q-76 0 -141 27.5t-112.5 76t-74.5 114.5t-27 144t27 144t74.5 114.5t112.5 76t140 27.5q47 0 87 -10t73 -26t58 -35.5t42 -38.5l-81 -79q-25 28 -70.5 52.5t-107.5 24.5
q-52 0 -95 -20t-73.5 -54.5t-47.5 -79.5t-17 -96t17 -96t48 -79.5t74 -54.5t95 -20z" />
    <glyph glyph-name="D" unicode="D" horiz-adv-x="680" 
d="M302 114q51 0 92 19t70 51.5t44.5 75t15.5 90.5t-15.5 91t-44.5 75t-70 51t-92 19h-108v-472h108zM300 700q76 0 140 -26.5t109.5 -73t71 -110.5t25.5 -140t-25.5 -140t-71 -110.5t-109.5 -73t-140 -26.5h-226v700h226z" />
    <glyph glyph-name="E" unicode="E" horiz-adv-x="546" 
d="M194 416h280v-114h-280v-188h310v-114h-430v700h424v-114h-304v-170z" />
    <glyph glyph-name="F" unicode="F" horiz-adv-x="527" 
d="M194 415h275v-114h-275v-301h-120v700h415v-114h-295v-171z" />
    <glyph glyph-name="G" unicode="G" horiz-adv-x="713" 
d="M407 100q33 0 72 8t64 26v148h-159v112h277v-318q-45 -40 -113 -64t-143 -24q-79 0 -146.5 27.5t-117.5 76t-78.5 115t-28.5 144.5q0 77 28 143t76.5 114.5t115 76t143.5 27.5q44 0 83 -9t72 -23.5t59.5 -33.5t44.5 -39l-82 -80q-26 29 -71.5 51t-103.5 22
q-54 0 -98.5 -20t-76.5 -54t-50 -79.5t-18 -95.5q0 -51 18.5 -96.5t51.5 -80t79 -54.5t102 -20z" />
    <glyph glyph-name="H" unicode="H" horiz-adv-x="687" 
d="M493 700h120v-700h-120v301h-299v-301h-120v700h120v-285h299v285z" />
    <glyph glyph-name="I" unicode="I" horiz-adv-x="296" 
d="M88 700h120v-700h-120v700z" />
    <glyph glyph-name="J" unicode="J" horiz-adv-x="521" 
d="M327 700h120v-480q0 -55 -17 -98t-47.5 -73t-73 -45.5t-93.5 -15.5q-43 0 -76.5 10.5t-59.5 27t-45 37.5t-32 42l88 74q24 -37 53 -57t71 -20q28 0 49.5 9.5t35 25t20.5 36t7 43.5v484z" />
    <glyph glyph-name="K" unicode="K" horiz-adv-x="628" 
d="M194 386l250 314h150l-274 -344l308 -356h-159l-275 316v-316h-120v700h120v-314z" />
    <glyph glyph-name="L" unicode="L" horiz-adv-x="500" 
d="M74 700h120v-586h298v-114h-418v700z" />
    <glyph glyph-name="M" unicode="M" horiz-adv-x="826" 
d="M185 700l228 -352l228 352h111v-700h-120v470l-219 -333l-219 333v-470h-120v700h111z" />
    <glyph glyph-name="N" unicode="N" horiz-adv-x="726" 
d="M182 700l350 -482v482h120v-700h-108l-350 481v-481h-120v700h108z" />
    <glyph glyph-name="O" unicode="O" horiz-adv-x="776" 
d="M388 102q53 0 96 20t73 53.5t46.5 78.5t16.5 96t-16.5 96t-46.5 78.5t-73 53.5t-96 20t-96 -20t-73 -53.5t-46.5 -78.5t-16.5 -96t16.5 -96t46.5 -78.5t73 -53.5t96 -20zM388 712q76 0 141 -27.5t112.5 -76t74 -114.5t26.5 -144t-26.5 -144t-74 -114.5t-112.5 -76
t-141 -27.5q-77 0 -141.5 27.5t-112 76t-74 114.5t-26.5 144t26.5 144t74 114.5t112 76t141.5 27.5z" />
    <glyph glyph-name="P" unicode="P" horiz-adv-x="566" 
d="M74 700h238q52 0 95 -17t73.5 -47t47 -71t16.5 -89t-16.5 -89t-47 -71t-73.5 -47t-95 -17h-118v-252h-120v700zM297 366q62 0 93.5 30t31.5 80t-31.5 80t-93.5 30h-103v-220h103z" />
    <glyph glyph-name="Q" unicode="Q" horiz-adv-x="791" 
d="M464 327l124 -108q32 58 32 130q0 51 -16.5 96.5t-47 79t-73.5 53.5t-95 20q-53 0 -95.5 -20t-73 -53.5t-47 -78.5t-16.5 -96t16.5 -96t47 -78.5t73 -53.5t95.5 -20q34 0 64 8.5t56 23.5l-121 106zM388 712q76 0 141 -27.5t112.5 -76t74 -114.5t26.5 -144
q0 -60 -16.5 -113t-45.5 -98l99 -85l-77 -88l-103 89q-44 -32 -97 -49.5t-114 -17.5q-77 0 -141.5 27.5t-112 76t-74 114.5t-26.5 144t26.5 144t74 114.5t112 76t141.5 27.5z" />
    <glyph glyph-name="R" unicode="R" horiz-adv-x="583" 
d="M289 378q58 0 91.5 26t33.5 78t-33.5 78t-91.5 26h-95v-208h95zM74 700h230q52 0 95 -16t73.5 -45t47 -69.5t16.5 -89.5q0 -77 -40.5 -133t-115.5 -75l175 -272h-140l-166 264h-55v-264h-120v700z" />
    <glyph glyph-name="S" unicode="S" horiz-adv-x="595" 
d="M424 187q0 22 -9.5 37t-26.5 27t-40.5 21.5t-51.5 19.5q-38 14 -77 32t-70.5 43.5t-51.5 59.5t-20 81q0 40 16 77t45.5 65t71.5 45t94 17q41 0 76 -10t64 -26t51.5 -36t38.5 -39l-83 -82q-12 15 -27 29t-34 25t-40 18t-45 7q-45 0 -75.5 -24t-30.5 -62q0 -24 13 -41
t34.5 -29.5t48.5 -22.5l55 -21q39 -15 74.5 -32.5t62.5 -41.5t43 -57t16 -78q0 -50 -19.5 -88t-52.5 -63t-76 -37.5t-91 -12.5q-50 0 -90.5 12.5t-73 32.5t-56.5 46t-41 52l90 76q12 -19 28.5 -37.5t37.5 -33.5t47 -24.5t58 -9.5q21 0 41.5 4.5t37.5 14.5t27.5 26.5
t10.5 39.5z" />
    <glyph glyph-name="T" unicode="T" horiz-adv-x="534" 
d="M207 586h-193v114h506v-114h-193v-586h-120v586z" />
    <glyph glyph-name="U" unicode="U" horiz-adv-x="688" 
d="M494 700h120v-446q0 -58 -19 -106.5t-54 -84t-85 -55.5t-112 -20t-112 20t-85 55.5t-54 84t-19 106.5v446h120v-431q0 -75 37.5 -121t112.5 -46t112.5 46t37.5 121v431z" />
    <glyph glyph-name="V" unicode="V" horiz-adv-x="630" 
d="M315 -24l-313 724h131l186 -449l184 449h125z" />
    <glyph glyph-name="W" unicode="W" horiz-adv-x="983" 
d="M703 -24l-210 525l-213 -525l-276 724h136l148 -420l159 420h99l156 -420l152 420h125z" />
    <glyph glyph-name="X" unicode="X" horiz-adv-x="612" 
d="M300 264l-153 -264h-135l226 362l-212 338h142l143 -242l141 242h132l-212 -338l228 -362h-143z" />
    <glyph glyph-name="Y" unicode="Y" horiz-adv-x="614" 
d="M367 0h-120v276l-239 424h132l171 -313l171 313h124l-239 -424v-276z" />
    <glyph glyph-name="Z" unicode="Z" horiz-adv-x="597" 
d="M583 700l-364 -586h344v-114h-549l366 586h-332v114h535z" />
    <glyph glyph-name="bracketleft" unicode="[" horiz-adv-x="330" 
d="M184 -134h114v-96h-224v986h224v-96h-114v-794z" />
    <glyph glyph-name="backslash" unicode="\" 
d="M18 757l96 43l400 -898l-96 -43z" />
    <glyph glyph-name="bracketright" unicode="]" horiz-adv-x="330" 
d="M146 660h-114v96h224v-986h-224v96h114v794z" />
    <glyph glyph-name="asciicircum" unicode="^" horiz-adv-x="537" 
d="M216 756h105l206 -406h-125l-133 274l-135 -274h-124z" />
    <glyph glyph-name="underscore" unicode="_" horiz-adv-x="500" 
d="M42 -116h416v-114h-416v114z" />
    <glyph glyph-name="grave" unicode="`" horiz-adv-x="272" 
d="M81 754l171 -174l-77 -73l-175 168z" />
    <glyph glyph-name="a" unicode="a" horiz-adv-x="536" 
d="M263 486q99 0 156 -48t57 -129v-309h-111v60q-23 -31 -63.5 -51.5t-90.5 -20.5q-34 0 -65.5 10.5t-55.5 31t-38 49.5t-14 65t14.5 65.5t40 50.5t60 32.5t74.5 11.5q33 0 68 -8.5t61 -25.5v27q0 23 -10 39t-25 25.5t-33.5 13.5t-35.5 4q-24 0 -61 -8t-79 -27l-39 99
q36 17 85.5 30t104.5 13zM244 88q42 0 69 17.5t43 37.5v49q-23 12 -52 18t-52 6q-16 0 -32 -3.5t-29.5 -11t-22 -20.5t-8.5 -32t8 -31t20.5 -18.5t27.5 -9t28 -2.5z" />
    <glyph glyph-name="b" unicode="b" horiz-adv-x="587" 
d="M194 166q15 -26 43 -46t72 -20q59 0 93.5 39t34.5 98t-34.5 98t-93.5 39q-44 0 -72 -20t-43 -46v-142zM74 756h120v-332q18 23 51 42.5t84 19.5q45 0 87 -18.5t73.5 -51.5t50.5 -78.5t19 -100.5q0 -54 -19 -100t-50.5 -79t-73 -51.5t-87.5 -18.5q-54 0 -90 22.5t-54 51.5
v-62h-111v756z" />
    <glyph glyph-name="c" unicode="c" horiz-adv-x="497" 
d="M284 100q42 0 72 18.5t44 39.5l79 -80q-12 -15 -31 -31t-44 -29t-55 -21.5t-66 -8.5q-53 0 -99.5 19.5t-81 53t-54.5 79t-20 97.5t20 97.5t54.5 79.5t81 53t99.5 19q35 0 65 -8t54.5 -21t43.5 -28.5t31 -30.5l-83 -74q-17 20 -46 35t-65 15q-30 0 -55 -11t-42 -30
t-26.5 -43.5t-9.5 -52.5t9.5 -53t27 -43.5t42 -29.5t55.5 -11z" />
    <glyph glyph-name="d" unicode="d" horiz-adv-x="587" 
d="M393 308q-15 26 -43 46t-72 20q-59 0 -93.5 -39t-34.5 -98t34.5 -98t93.5 -39q44 0 72 20t43 46v142zM513 0h-111v62q-18 -29 -54 -51.5t-90 -22.5q-46 0 -87.5 18.5t-73 51.5t-50.5 79t-19 100q0 55 19 100.5t50.5 78.5t73.5 51.5t87 18.5q51 0 84 -19.5t51 -42.5v332
h120v-756z" />
    <glyph glyph-name="e" unicode="e" horiz-adv-x="533" 
d="M385 281q-1 15 -8.5 32t-22 31.5t-36.5 23.5t-52 9q-29 0 -50 -9t-35.5 -23t-22 -31t-8.5 -33h235zM266 486q49 0 92.5 -18t76 -50.5t51.5 -78t19 -100.5v-19q0 -12 -1 -26h-354q4 -17 14.5 -34t28 -30.5t40.5 -22.5t52 -9q30 0 65 11t63 37l60 -90q-29 -24 -78 -46
t-112 -22q-54 0 -100.5 19t-81 53t-54 80t-19.5 99q0 51 18 96t49.5 78.5t75.5 53t95 19.5z" />
    <glyph glyph-name="f" unicode="f" horiz-adv-x="371" 
d="M16 474h94v116q0 49 15.5 83t40.5 55t55.5 30.5t60.5 9.5q26 0 54.5 -6.5t48.5 -18.5l-45 -101q-8 6 -21 10t-26 4q-9 0 -20 -3t-20.5 -11t-16 -22t-6.5 -36v-110h116v-108h-116v-366h-120v366h-94v108z" />
    <glyph glyph-name="g" unicode="g" horiz-adv-x="573" 
d="M393 308q-15 26 -43 46t-72 20q-59 0 -93.5 -39t-34.5 -98t34.5 -98t93.5 -39q23 0 41 6t32.5 15.5t24.5 21.5t17 23v142zM393 49q-6 -8 -17 -18t-27.5 -20t-39 -16.5t-51.5 -6.5q-45 0 -87 18.5t-73.5 51.5t-50.5 78.5t-19 100.5t19 100.5t50.5 78.5t73.5 51.5t87 18.5
q54 0 89.5 -23t54.5 -51v62h111v-478q0 -62 -21 -107t-56.5 -74t-81 -43t-93.5 -14q-39 0 -73.5 8.5t-63.5 21.5t-52 29t-39 31l68 92q28 -27 68 -48.5t94 -21.5q65 0 97.5 34t32.5 88v57z" />
    <glyph glyph-name="h" unicode="h" horiz-adv-x="562" 
d="M329 486q34 0 65.5 -12t55.5 -35t38 -56t14 -76v-307h-120v277q0 25 -7.5 43.5t-20.5 30.5t-29 17.5t-34 5.5q-20 0 -35 -6t-27 -15t-20.5 -20t-14.5 -21v-312h-120v756h120v-339q18 26 51.5 47.5t83.5 21.5z" />
    <glyph glyph-name="i" unicode="i" horiz-adv-x="278" 
d="M60 627q0 33 23 56t56 23t56 -23t23 -56t-23 -56t-56 -23t-56 23t-23 56zM79 474h120v-474h-120v474z" />
    <glyph glyph-name="j" unicode="j" horiz-adv-x="332" 
d="M114 627q0 33 23 56t56 23t56 -23t23 -56t-23 -56t-56 -23t-56 23t-23 56zM8 -110q19 -11 33 -15.5t28 -4.5q8 0 19.5 2.5t21.5 12.5t17 29.5t7 53.5v506h120v-517q0 -58 -17.5 -96.5t-43.5 -61t-57.5 -32t-58.5 -9.5q-28 0 -57.5 8t-54.5 23z" />
    <glyph glyph-name="k" unicode="k" horiz-adv-x="535" 
d="M194 287l170 187h155l-208 -224l222 -250h-158l-181 207v-207h-120v756h120v-469z" />
    <glyph glyph-name="l" unicode="l" horiz-adv-x="268" 
d="M74 756h120v-756h-120v756z" />
    <glyph glyph-name="m" unicode="m" horiz-adv-x="836" 
d="M609 486q36 0 67 -12.5t53 -35.5t34.5 -56.5t12.5 -76.5v-305h-120v274q0 100 -81 100q-40 0 -62.5 -20t-34.5 -41v-313h-120v274q0 100 -81 100q-40 0 -62.5 -20t-34.5 -41v-313h-120v474h112v-69q18 30 53 55.5t90 25.5q47 0 86 -21.5t58 -61.5q8 15 21.5 30t32.5 26.5
t43 19t53 7.5z" />
    <glyph glyph-name="n" unicode="n" horiz-adv-x="548" 
d="M315 486q34 0 65.5 -12t55.5 -35t38 -56t14 -76v-307h-120v277q0 51 -27.5 74t-63.5 23q-38 0 -61 -20t-36 -41v-313h-120v474h112v-69q8 13 20.5 27.5t30.5 26.5t40.5 19.5t51.5 7.5z" />
    <glyph glyph-name="o" unicode="o" horiz-adv-x="562" 
d="M281 100q30 0 54.5 11t41.5 29.5t26 43.5t9 53t-9 52.5t-26 43.5t-41.5 30t-54.5 11t-54.5 -11t-41.5 -30t-26 -43.5t-9 -52.5t9 -53t26 -43.5t41.5 -29.5t54.5 -11zM281 486q53 0 99 -19t80.5 -53t54 -79.5t19.5 -97.5t-19.5 -97.5t-54 -79t-80.5 -53t-99 -19.5
t-99 19.5t-80.5 53t-54 79t-19.5 97.5t19.5 97.5t54 79.5t80.5 53t99 19z" />
    <glyph glyph-name="p" unicode="p" horiz-adv-x="573" 
d="M180 166q15 -26 43 -46t72 -20q59 0 93.5 39t34.5 98t-34.5 98t-93.5 39q-44 0 -72 -20t-43 -46v-142zM171 474v-62q20 29 55.5 51.5t89.5 22.5q45 0 86.5 -18.5t73 -51.5t50.5 -78.5t19 -100.5t-19 -100.5t-50.5 -78.5t-73.5 -51.5t-87 -18.5q-29 0 -51.5 6.5t-39 16.5
t-27.5 20t-17 18v-279h-120v704h111z" />
    <glyph glyph-name="q" unicode="q" horiz-adv-x="573" 
d="M393 308q-15 26 -43 46t-72 20q-59 0 -93.5 -39t-34.5 -98t34.5 -98t93.5 -39q44 0 72 20t43 46v142zM513 474v-704h-120v279q-6 -8 -17 -18t-27.5 -20t-39 -16.5t-51.5 -6.5q-45 0 -87 18.5t-73.5 51.5t-50.5 78.5t-19 100.5t19 100.5t50.5 78.5t73 51.5t86.5 18.5
q54 0 89.5 -22.5t55.5 -51.5v62h111z" />
    <glyph glyph-name="r" unicode="r" horiz-adv-x="387" 
d="M305 486q17 0 38 -3.5t42 -11.5l-42 -108q-10 5 -24.5 8t-30.5 3q-42 0 -68 -20.5t-40 -43.5v-310h-120v474h114v-69q17 31 50 56t81 25z" />
    <glyph glyph-name="s" unicode="s" horiz-adv-x="483" 
d="M97 161q12 -11 26.5 -23t33 -22t41 -16.5t49.5 -6.5q32 0 57.5 11t25.5 35q0 12 -7.5 19.5t-20 12.5t-30 8.5t-36.5 8.5q-33 7 -64.5 18.5t-56.5 29t-40 41t-15 56.5q0 30 13.5 57.5t39.5 49t63 34t85 12.5q63 0 108.5 -19t72.5 -39l-60 -88q-21 15 -52 28t-68 13
q-32 0 -58 -12t-26 -34q0 -20 26 -29.5t86 -22.5q31 -7 60.5 -17t51.5 -26t35.5 -39.5t13.5 -57.5q0 -38 -17 -67t-45.5 -48.5t-65.5 -29.5t-78 -10q-38 0 -70.5 7.5t-59.5 19.5t-48.5 27.5t-36.5 31.5z" />
    <glyph glyph-name="t" unicode="t" horiz-adv-x="416" 
d="M22 474h93v141h120v-141h143v-108h-143v-191q0 -22 5.5 -36.5t14 -23t19.5 -12t22 -3.5q15 0 28 5t23 12l44 -98q-21 -14 -51 -22.5t-62 -8.5q-35 0 -65 12t-52 34t-34 53t-12 69v210h-93v108z" />
    <glyph glyph-name="u" unicode="u" horiz-adv-x="548" 
d="M233 -12q-33 0 -64.5 12t-55.5 35t-38.5 56t-14.5 76v307h120v-274q0 -53 24 -76.5t65 -23.5q38 0 61 17.5t38 40.5v316h120v-474h-112v69q-9 -14 -22 -28.5t-31 -26t-40.5 -19t-49.5 -7.5z" />
    <glyph glyph-name="v" unicode="v" horiz-adv-x="506" 
d="M135 474l120 -258l120 258h129l-251 -498l-251 498h133z" />
    <glyph glyph-name="w" unicode="w" horiz-adv-x="768" 
d="M138 474l98 -243l103 243h101l100 -243l102 243h122l-229 -498l-152 338l-150 -338l-229 498h134z" />
    <glyph glyph-name="x" unicode="x" horiz-adv-x="525" 
d="M29 474h141l97 -146l95 146h137l-165 -229l175 -245h-143l-107 162l-107 -162h-136l176 245z" />
    <glyph glyph-name="y" unicode="y" horiz-adv-x="557" 
d="M76 -99q20 -17 35 -24t33 -7q29 0 45 16t31 54l19 49l-231 485h133l160 -347l125 347h129l-230 -580q-15 -39 -35.5 -65t-43 -42t-47 -22.5t-48.5 -6.5q-42 0 -75 15t-56 35z" />
    <glyph glyph-name="z" unicode="z" horiz-adv-x="495" 
d="M469 474l-235 -362h224v-112h-428l235 362h-218v112h422z" />
    <glyph glyph-name="braceleft" unicode="{" horiz-adv-x="350" 
d="M314 648q-15 0 -27.5 -2.5t-21.5 -10t-14 -22t-5 -39.5v-186q0 -39 -8.5 -64t-22.5 -39t-31.5 -19t-36.5 -6v-4q19 -1 36.5 -6t31.5 -19t22.5 -39t8.5 -64v-176q0 -25 5 -39.5t14 -22t21.5 -10t27.5 -2.5v-108h-54q-29 0 -53.5 10t-42.5 27.5t-28 42.5t-10 55v208
q0 34 -8.5 54t-22.5 30.5t-32 13.5t-37 3v88q19 0 37 3t32 13.5t22.5 30.5t8.5 54v218q0 30 10 55t28 42.5t42.5 27.5t53.5 10h54v-108z" />
    <glyph glyph-name="bar" unicode="|" horiz-adv-x="260" 
d="M72 740h116v-970h-116v970z" />
    <glyph glyph-name="braceright" unicode="}" horiz-adv-x="350" 
d="M36 756h54q29 0 53.5 -10t42.5 -27.5t28 -42.5t10 -55v-218q0 -34 8.5 -54t22.5 -30.5t32 -13.5t37 -3v-88q-19 0 -37 -3t-32 -13.5t-22.5 -30.5t-8.5 -54v-208q0 -30 -10 -55t-28 -42.5t-42.5 -27.5t-53.5 -10h-54v108q15 0 27.5 2.5t21.5 10t14 22t5 39.5v176
q0 39 8.5 64t22.5 39t31.5 19t36.5 6v4q-19 1 -36.5 6t-31.5 19t-22.5 39t-8.5 64v186q0 25 -5 39.5t-14 22t-21.5 10t-27.5 2.5v108z" />
    <glyph glyph-name="asciitilde" unicode="~" horiz-adv-x="489" 
d="M20 311q22 54 61.5 83.5t85.5 29.5q24 0 44.5 -7.5t38.5 -16.5l35 -16q16 -7 33 -7q20 0 38.5 13t26.5 43l86 -54q-19 -48 -57.5 -80t-89.5 -32q-25 0 -46 7.5t-39 15.5l-35 16q-16 8 -32 8q-21 0 -38.5 -15t-25.5 -41z" />
    <glyph glyph-name="exclamdown" unicode="&#xa1;" horiz-adv-x="306" 
d="M74 407q0 33 23 56t56 23t56 -23t23 -56t-23 -56t-56 -23t-56 23t-23 56zM215 -226h-124l5 500h114z" />
    <glyph glyph-name="cent" unicode="&#xa2;" horiz-adv-x="580" 
d="M192 237q0 -47 25 -83.5t70 -48.5v264q-45 -13 -70 -49.5t-25 -82.5zM287 -9q-47 6 -86.5 27.5t-68.5 54t-45.5 74.5t-16.5 90t16.5 90t45.5 74.5t68.5 54t86.5 27.5v87h63v-85q53 -5 99 -30.5t70 -56.5l-83 -74q-14 17 -37 30t-49 18v-270q33 5 57.5 22.5t34.5 33.5
l79 -80q-23 -29 -67.5 -55.5t-103.5 -33.5v-83h-63v85z" />
    <glyph glyph-name="sterling" unicode="&#xa3;" horiz-adv-x="580" 
d="M194 504q0 -22 13 -52t48 -85h185v-84h-143q5 -15 7.5 -28t2.5 -28q0 -29 -6.5 -49t-11.5 -31q18 -6 32 -14l28 -16q13 -7 26 -12t28 -5q29 0 46 18.5t23 43.5l93 -52q-9 -24 -24 -46t-35.5 -39t-47 -27t-60.5 -10q-33 0 -56 8.5t-42 19t-37 19.5t-40 9q-33 0 -54 -19.5
t-32 -44.5l-92 64q17 34 48 65.5t69 42.5q8 9 16.5 31t8.5 43q0 16 -5 29t-13 28h-124v84h78q-16 29 -32.5 65t-16.5 78q0 34 13.5 69.5t41.5 65t70.5 48.5t101.5 19q41 0 74 -9.5t59 -25.5t45.5 -36t33.5 -41l-87 -70q-16 27 -46 48.5t-75 21.5q-26 0 -46.5 -8t-35 -21.5
t-22 -30.5t-7.5 -36z" />
    <glyph glyph-name="currency" unicode="&#xa4;" horiz-adv-x="580" 
d="M170 322q0 -25 9.5 -47t26 -38.5t38.5 -26t47 -9.5t47 9.5t38.5 25.5t26 37.5t9.5 46.5t-9.5 47.5t-26 39.5t-39 27t-47.5 10t-46.5 -10t-38 -26.5t-26 -38.5t-9.5 -47zM58 323q0 69 37 126l-71 71l70 70l70 -71q28 18 60 28t67 10t66.5 -10t58.5 -28l71 71l70 -70
l-71 -71q18 -27 28 -59t10 -67t-10 -67t-28 -60l71 -70l-70 -70l-71 71q-57 -37 -125 -37q-71 0 -126 37l-71 -71l-70 70l71 71q-37 55 -37 126z" />
    <glyph glyph-name="yen" unicode="&#xa5;" horiz-adv-x="580" 
d="M25 469h96l-130 231h132l171 -313l171 313h124l-130 -231h96v-84h-144l-39 -70h183v-84h-205v-231h-120v231h-205v84h183l-40 70h-143v84z" />
    <glyph glyph-name="brokenbar" unicode="&#xa6;" horiz-adv-x="260" 
d="M72 160h116v-390h-116v390zM72 740h116v-390h-116v390z" />
    <glyph glyph-name="section" unicode="&#xa7;" horiz-adv-x="508" 
d="M254 169q13 2 26.5 8t24 16.5t17 25t6.5 34.5q0 6 -1.5 16.5t-9.5 23t-24 26.5t-44 27l-5 2q-28 -5 -51 -24t-23 -60q0 -17 4.5 -29t14.5 -22t25 -19l35 -22zM448 265q0 -32 -11 -57.5t-26.5 -44.5t-33.5 -31.5t-33 -19.5q42 -29 62.5 -67t20.5 -79q0 -35 -14 -64.5
t-38.5 -50.5t-58.5 -33t-73 -12q-62 0 -105.5 25.5t-69.5 55.5l76 79q19 -24 44.5 -37t50.5 -13q31 0 49.5 17.5t18.5 42.5q0 12 -5.5 22.5t-18 21.5t-32.5 23l-49 29q-29 16 -56 33.5t-48.5 38.5t-34.5 47.5t-13 61.5q0 31 10.5 56.5t26 44.5t34 31.5t33.5 19.5
q-42 29 -62.5 62.5t-20.5 76.5q0 35 13.5 65.5t38 53.5t58.5 36t75 13q62 0 105 -26t68 -56l-79 -74q-17 22 -41.5 34t-49.5 12q-31 0 -49.5 -17.5t-18.5 -42.5q0 -14 6 -24.5t19 -21t33 -22.5l47 -28q28 -16 55.5 -33.5t49 -38.5t34.5 -47.5t13 -61.5z" />
    <glyph glyph-name="dieresis" unicode="&#xa8;" horiz-adv-x="392" 
d="M220 621q0 33 23 56t56 23t56 -23t23 -56t-23 -56t-56 -23t-56 23t-23 56zM14 621q0 33 23 56t56 23t56 -23t23 -56t-23 -56t-56 -23t-56 23t-23 56z" />
    <glyph glyph-name="copyright" unicode="&#xa9;" horiz-adv-x="819" 
d="M134 350q0 -57 22 -107t59.5 -87.5t87.5 -59.5t107 -22t107 22t87.5 59.5t59 87.5t21.5 107t-21.5 107t-59 87.5t-87.5 59.5t-107 22t-107 -22t-87.5 -59.5t-59.5 -87.5t-22 -107zM48 350q0 75 28.5 141t77.5 115t115 77.5t141 28.5t141 -28.5t114.5 -77.5t77 -115
t28.5 -141t-28.5 -141t-77 -115t-114.5 -77.5t-141 -28.5t-141 28.5t-115 77.5t-77.5 115t-28.5 141zM419 241q33 0 57 14.5t35 31.5l62 -63q-9 -12 -24 -24.5t-35 -23t-43.5 -17t-52.5 -6.5q-42 0 -79 15t-64 41.5t-43 62.5t-16 78q0 41 16 77t43 62.5t64 42t79 15.5
q28 0 51.5 -6.5t43 -17t34.5 -22.5t25 -24l-66 -59q-14 16 -36.5 28t-51.5 12q-24 0 -43.5 -9t-33 -24t-21 -34t-7.5 -41q0 -23 7.5 -42.5t21 -34t33 -23.5t44.5 -9z" />
    <glyph glyph-name="ordfeminine" unicode="&#xaa;" horiz-adv-x="325" 
d="M158 712q66 0 100 -31.5t34 -79.5v-195h-70v39q-17 -23 -43 -34.5t-53 -11.5q-20 0 -39.5 6.5t-34.5 19.5t-24.5 31t-9.5 42q0 45 32.5 72t82.5 27q27 0 48.5 -7.5t35.5 -18.5v19q0 26 -21.5 37.5t-45.5 11.5q-18 0 -41 -5.5t-44 -15.5l-25 66q18 10 49.5 19t68.5 9z
M146 464q24 0 42 11t29 25v22q-16 8 -35 12t-33 4q-18 0 -35.5 -7.5t-17.5 -29.5q0 -21 16.5 -29t33.5 -8z" />
    <glyph glyph-name="guillemotleft" unicode="&#xab;" horiz-adv-x="529" 
d="M404 481l82 -63l-138 -173l138 -173l-82 -63l-183 236zM189 481l82 -63l-138 -173l138 -173l-82 -63l-183 236z" />
    <glyph glyph-name="logicalnot" unicode="&#xac;" horiz-adv-x="674" 
d="M18 508h600v-316h-118v202h-482v114z" />
    <glyph glyph-name="uni00AD" unicode="&#xad;" horiz-adv-x="333" 
d="M33 304h267v-114h-267v114z" />
    <glyph glyph-name="registered" unicode="&#xae;" horiz-adv-x="425" 
d="M70 510q0 -30 11 -56t30.5 -45.5t45.5 -30.5t56 -11t56 11t45.5 30.5t31 45.5t11.5 56t-11.5 56t-31 45.5t-45.5 31t-56 11.5t-56 -11.5t-45.5 -31t-30.5 -45.5t-11 -56zM5 510q0 43 16.5 81.5t44.5 67t66 45t81 16.5t81.5 -16.5t67 -45t45 -67t16.5 -81.5t-16.5 -81
t-45 -66t-67 -44.5t-81.5 -16.5t-81 16.5t-66 44.5t-44.5 66t-16.5 81zM211 524q14 0 24.5 3t10.5 18t-10.5 18t-24.5 3h-20v-42h20zM137 607h98q29 0 46 -18t17 -44q0 -21 -11.5 -36.5t-31.5 -21.5l50 -70h-60l-40 61h-14v-61h-54v190z" />
    <glyph glyph-name="macron" unicode="&#xaf;" horiz-adv-x="334" 
d="M6 680h322v-108h-322v108z" />
    <glyph glyph-name="degree" unicode="&#xb0;" horiz-adv-x="357" 
d="M108 555q0 -30 21 -50.5t50 -20.5t50 20.5t21 50.5t-21 50.5t-50 20.5t-50 -20.5t-21 -50.5zM22 555q0 33 12 61.5t33 49.5t49.5 33.5t61.5 12.5t61.5 -12.5t49.5 -33.5t33.5 -49.5t12.5 -61.5t-12.5 -61.5t-33.5 -49.5t-49.5 -33t-61.5 -12t-61.5 12t-49.5 33t-33 49.5
t-12 61.5z" />
    <glyph glyph-name="plusminus" unicode="&#xb1;" 
d="M38 371h167v130h110v-130h167v-102h-167v-123h-110v123h-167v102zM38 102h444v-102h-444v102z" />
    <glyph glyph-name="twosuperior" unicode="&#xb2;" horiz-adv-x="362" 
d="M184 578q5 7 13 16.5t15.5 20.5t13 23.5t5.5 26.5q0 24 -17.5 40t-44.5 16q-29 0 -45 -18t-23 -41l-79 27q7 22 19 43.5t30.5 37.5t43 26t57.5 10q37 0 65 -12.5t47 -32t28.5 -44.5t9.5 -49q0 -32 -12 -57t-20 -35l-75 -100h111v-82h-294z" />
    <glyph glyph-name="threesuperior" unicode="&#xb3;" horiz-adv-x="368" 
d="M235 680q0 20 -15.5 32.5t-42.5 12.5q-29 0 -45.5 -13.5t-24.5 -29.5l-70 38q17 34 51.5 60t90.5 26q29 0 55.5 -8.5t46.5 -24t32 -38.5t12 -52q0 -35 -15 -52t-32 -25q22 -9 38 -32t16 -59q0 -32 -13 -55.5t-34.5 -39.5t-49 -24t-56.5 -8q-31 0 -55.5 8.5t-43 22
t-31 30.5t-19.5 35l74 41q8 -23 26 -39.5t50 -16.5q26 0 44 12.5t18 35.5q0 22 -17.5 34.5t-49.5 12.5h-22v70h15q24 0 45.5 10t21.5 36z" />
    <glyph glyph-name="acute" unicode="&#xb4;" horiz-adv-x="272" 
d="M272 674l-175 -168l-77 73l171 174z" />
    <glyph glyph-name="mu" unicode="&#xb5;" horiz-adv-x="548" 
d="M234 -12q-27 0 -54 8v-226h-120v704h120v-274q0 -53 24 -76.5t65 -23.5q38 0 61 17.5t38 40.5v316h120v-474h-112v69q-8 -14 -21 -28t-31 -26t-40.5 -19.5t-49.5 -7.5z" />
    <glyph glyph-name="paragraph" unicode="&#xb6;" horiz-adv-x="672" 
d="M386 -188h-112v414q-49 0 -92.5 18.5t-75.5 50.5t-51 75t-19 92t19 92.5t51 75.5t75.5 51t92.5 19h324v-888h-112v786h-100v-786z" />
    <glyph glyph-name="periodcentered" unicode="&#xb7;" horiz-adv-x="278" 
d="M60 360q0 33 23 56t56 23t56 -23t23 -56t-23 -56t-56 -23t-56 23t-23 56z" />
    <glyph glyph-name="cedilla" unicode="&#xb8;" horiz-adv-x="315" 
d="M173 -271l-111 32l72 194l107 -12z" />
    <glyph glyph-name="onesuperior" unicode="&#xb9;" horiz-adv-x="323" 
d="M166 800h85v-406h-93v289l-97 -80l-53 66z" />
    <glyph glyph-name="ordmasculine" unicode="&#xba;" horiz-adv-x="357" 
d="M108 555q0 -29 21 -50t50 -21t50 21t21 50t-21 50t-50 21t-50 -21t-21 -50zM22 555q0 33 12.5 61.5t33.5 49.5t49.5 33.5t61.5 12.5t61.5 -12.5t49.5 -33.5t33.5 -49.5t12.5 -61.5t-12.5 -61.5t-33.5 -49.5t-49.5 -33.5t-61.5 -12.5t-61.5 12.5t-49.5 33.5t-33.5 49.5
t-12.5 61.5z" />
    <glyph glyph-name="guillemotright" unicode="&#xbb;" horiz-adv-x="529" 
d="M308 245l-183 -236l-82 63l138 173l-138 173l82 63zM523 245l-183 -236l-82 63l138 173l-138 173l82 63z" />
    <glyph glyph-name="onequarter" unicode="&#xbc;" horiz-adv-x="830" 
d="M651 731l57 -39l-471 -724l-57 39zM669 156v134l-84 -134h84zM657 406h98v-250h50v-78h-50v-78h-86v78h-220zM184 700h85v-406h-93v289l-97 -80l-53 66z" />
    <glyph glyph-name="onehalf" unicode="&#xbd;" horiz-adv-x="830" 
d="M631 184q5 7 13 16.5t15.5 20.5t13 23.5t5.5 26.5q0 24 -17.5 40t-44.5 16q-29 0 -45 -18t-23 -41l-79 27q7 22 19 43.5t30.5 37.5t43 26t57.5 10q37 0 65 -12.5t47 -32t28.5 -44.5t9.5 -49q0 -32 -12 -57t-20 -35l-75 -100h111v-82h-294zM602 731l57 -39l-471 -724
l-57 39zM174 700h85v-406h-93v289l-97 -80l-53 66z" />
    <glyph glyph-name="threequarters" unicode="&#xbe;" horiz-adv-x="830" 
d="M661 731l57 -39l-471 -724l-57 39zM245 580q0 20 -15.5 32.5t-42.5 12.5q-29 0 -45.5 -13.5t-24.5 -29.5l-70 38q17 34 51.5 60t90.5 26q29 0 55.5 -8.5t46.5 -24t32 -38.5t12 -52q0 -35 -15 -52t-32 -25q22 -9 38 -32t16 -59q0 -32 -13 -55.5t-34.5 -39.5t-49 -24
t-56.5 -8q-31 0 -55.5 8.5t-43 22t-31 30.5t-19.5 35l74 41q8 -23 26 -39.5t50 -16.5q26 0 44 12.5t18 35.5q0 22 -17.5 34.5t-49.5 12.5h-22v70h15q24 0 45.5 10t21.5 36zM669 156v134l-84 -134h84zM657 406h98v-250h50v-78h-50v-78h-86v78h-220z" />
    <glyph glyph-name="questiondown" unicode="&#xbf;" horiz-adv-x="489" 
d="M326 407q0 -33 -23 -56t-56 -23t-56 23t-23 56t23 56t56 23t56 -23t23 -56zM160 -33q0 -42 28 -66.5t66 -24.5q21 0 39 8t33 21t26.5 30.5t18.5 36.5l102 -47q-10 -30 -29 -59.5t-46.5 -52.5t-63 -37t-80.5 -14t-84.5 15.5t-68 42.5t-45 64.5t-16.5 81.5q0 32 8.5 56.5
t23.5 45.5t35 40.5t44 40.5l20 19q8 7 11.5 13.5t4.5 15t1 21.5v51h119v-74q0 -24 -5 -40.5t-15.5 -30.5t-28.5 -28l-41 -36q-23 -20 -40 -40.5t-17 -52.5z" />
    <glyph glyph-name="Agrave" unicode="&#xc0;" horiz-adv-x="678" 
d="M234 276h210l-105 273zM278 700h122l272 -700h-121l-64 166h-296l-64 -166h-121zM272 992l171 -174l-77 -73l-175 168z" />
    <glyph glyph-name="Aacute" unicode="&#xc1;" horiz-adv-x="678" 
d="M234 276h210l-105 273zM278 700h122l272 -700h-121l-64 166h-296l-64 -166h-121zM490 912l-175 -168l-77 73l171 174z" />
    <glyph glyph-name="Acircumflex" unicode="&#xc2;" horiz-adv-x="678" 
d="M234 276h210l-105 273zM278 700h122l272 -700h-121l-64 166h-296l-64 -166h-121zM339 958l186 -134l-66 -82l-120 91l-122 -91l-64 82z" />
    <glyph glyph-name="Atilde" unicode="&#xc3;" horiz-adv-x="678" 
d="M234 276h210l-105 273zM278 700h122l272 -700h-121l-64 166h-296l-64 -166h-121zM136 836q20 52 56.5 78t74.5 26q24 0 43.5 -9t35.5 -20l31 -20q15 -9 30 -9q23 0 36 21t18 44l82 -65q-20 -56 -56 -81t-72 -25q-24 0 -43 9t-36 19l-31 20q-15 9 -30 9q-22 0 -36 -18.5
t-19 -39.5z" />
    <glyph glyph-name="Adieresis" unicode="&#xc4;" horiz-adv-x="678" 
d="M234 276h210l-105 273zM278 700h122l272 -700h-121l-64 166h-296l-64 -166h-121zM363 859q0 33 23 56t56 23t56 -23t23 -56t-23 -56t-56 -23t-56 23t-23 56zM157 859q0 33 23 56t56 23t56 -23t23 -56t-23 -56t-56 -23t-56 23t-23 56z" />
    <glyph glyph-name="Aring" unicode="&#xc5;" horiz-adv-x="678" 
d="M234 276h210l-105 273zM278 700h122l272 -700h-121l-64 166h-296l-64 -166h-121zM285 863q0 -23 15.5 -38.5t38.5 -15.5t38.5 15.5t15.5 38.5t-15.5 38.5t-38.5 15.5t-38.5 -15.5t-15.5 -38.5zM217 863q0 25 10 46.5t26.5 38t38.5 26t47 9.5t47 -9.5t38.5 -26t26.5 -38
t10 -46.5t-10 -46.5t-26.5 -38t-38.5 -26t-47 -9.5t-47 9.5t-38.5 26t-26.5 38t-10 46.5z" />
    <glyph glyph-name="AE" unicode="&#xc6;" horiz-adv-x="915" 
d="M613 416h230v-114h-230v-190h260v-112h-380v143h-272l-85 -143h-130l413 700h448v-112h-254v-172zM287 257h206v348z" />
    <glyph glyph-name="Ccedilla" unicode="&#xc7;" horiz-adv-x="676" 
d="M341 -275l-111 32l72 194l107 -12zM390 100q63 0 111.5 26.5t76.5 59.5l80 -79q-19 -23 -46 -44t-61 -38t-75 -27t-87 -10q-76 0 -141 27.5t-112.5 76t-74.5 114.5t-27 144t27 144t74.5 114.5t112.5 76t140 27.5q47 0 87 -10t73 -26t58 -35.5t42 -38.5l-81 -79
q-25 28 -70.5 52.5t-107.5 24.5q-52 0 -95 -20t-73.5 -54.5t-47.5 -79.5t-17 -96t17 -96t48 -79.5t74 -54.5t95 -20z" />
    <glyph glyph-name="Egrave" unicode="&#xc8;" horiz-adv-x="546" 
d="M194 416h280v-114h-280v-188h310v-114h-430v700h424v-114h-304v-170zM228 992l171 -174l-77 -73l-175 168z" />
    <glyph glyph-name="Eacute" unicode="&#xc9;" horiz-adv-x="546" 
d="M194 416h280v-114h-280v-188h310v-114h-430v700h424v-114h-304v-170zM442 912l-175 -168l-77 73l171 174z" />
    <glyph glyph-name="Ecircumflex" unicode="&#xca;" horiz-adv-x="546" 
d="M194 416h280v-114h-280v-188h310v-114h-430v700h424v-114h-304v-170zM285 958l186 -134l-66 -82l-120 91l-122 -91l-64 82z" />
    <glyph glyph-name="Edieresis" unicode="&#xcb;" horiz-adv-x="546" 
d="M194 416h280v-114h-280v-188h310v-114h-430v700h424v-114h-304v-170zM315 859q0 33 23 56t56 23t56 -23t23 -56t-23 -56t-56 -23t-56 23t-23 56zM109 859q0 33 23 56t56 23t56 -23t23 -56t-23 -56t-56 -23t-56 23t-23 56z" />
    <glyph glyph-name="Igrave" unicode="&#xcc;" horiz-adv-x="296" 
d="M88 700h120v-700h-120v700zM85 992l171 -174l-77 -73l-175 168z" />
    <glyph glyph-name="Iacute" unicode="&#xcd;" horiz-adv-x="296" 
d="M86 700h120v-700h-120v700zM292 912l-175 -168l-77 73l171 174z" />
    <glyph glyph-name="Icircumflex" unicode="&#xce;" horiz-adv-x="296" 
d="M88 700h120v-700h-120v700zM151 968l186 -134l-66 -82l-120 91l-122 -91l-64 82z" />
    <glyph glyph-name="Idieresis" unicode="&#xcf;" horiz-adv-x="296" 
d="M75 700h120v-700h-120v700zM159 859q0 33 23 56t56 23t56 -23t23 -56t-23 -56t-56 -23t-56 23t-23 56zM-47 859q0 33 23 56t56 23t56 -23t23 -56t-23 -56t-56 -23t-56 23t-23 56z" />
    <glyph glyph-name="Eth" unicode="&#xd0;" horiz-adv-x="708" 
d="M330 114q51 0 92 19t70 51.5t44.5 75t15.5 90.5t-15.5 91t-44.5 75t-70 51t-92 19h-108v-177h202v-104h-202v-191h108zM328 700q76 0 140 -26.5t109.5 -73t71 -110.5t25.5 -140t-25.5 -140t-71 -110.5t-109.5 -73t-140 -26.5h-226v305h-90v104h90v291h226z" />
    <glyph glyph-name="Ntilde" unicode="&#xd1;" horiz-adv-x="726" 
d="M182 700l350 -482v482h120v-700h-108l-350 481v-481h-120v700h108zM163 836q20 52 56.5 78t74.5 26q24 0 43.5 -9t35.5 -20l31 -20q15 -9 30 -9q23 0 36 21t18 44l82 -65q-20 -56 -56 -81t-72 -25q-24 0 -43 9t-36 19l-31 20q-15 9 -30 9q-22 0 -36 -18.5t-19 -39.5z" />
    <glyph glyph-name="Ograve" unicode="&#xd2;" horiz-adv-x="776" 
d="M388 102q53 0 96 20t73 53.5t46.5 78.5t16.5 96t-16.5 96t-46.5 78.5t-73 53.5t-96 20t-96 -20t-73 -53.5t-46.5 -78.5t-16.5 -96t16.5 -96t46.5 -78.5t73 -53.5t96 -20zM388 712q76 0 141 -27.5t112.5 -76t74 -114.5t26.5 -144t-26.5 -144t-74 -114.5t-112.5 -76
t-141 -27.5q-77 0 -141.5 27.5t-112 76t-74 114.5t-26.5 144t26.5 144t74 114.5t112 76t141.5 27.5zM330 992l171 -174l-77 -73l-175 168z" />
    <glyph glyph-name="Oacute" unicode="&#xd3;" horiz-adv-x="776" 
d="M522 912l-175 -168l-77 73l171 174zM388 102q53 0 96 20t73 53.5t46.5 78.5t16.5 96t-16.5 96t-46.5 78.5t-73 53.5t-96 20t-96 -20t-73 -53.5t-46.5 -78.5t-16.5 -96t16.5 -96t46.5 -78.5t73 -53.5t96 -20zM388 712q76 0 141 -27.5t112.5 -76t74 -114.5t26.5 -144
t-26.5 -144t-74 -114.5t-112.5 -76t-141 -27.5q-77 0 -141.5 27.5t-112 76t-74 114.5t-26.5 144t26.5 144t74 114.5t112 76t141.5 27.5z" />
    <glyph glyph-name="Ocircumflex" unicode="&#xd4;" horiz-adv-x="776" 
d="M388 102q53 0 96 20t73 53.5t46.5 78.5t16.5 96t-16.5 96t-46.5 78.5t-73 53.5t-96 20t-96 -20t-73 -53.5t-46.5 -78.5t-16.5 -96t16.5 -96t46.5 -78.5t73 -53.5t96 -20zM388 712q76 0 141 -27.5t112.5 -76t74 -114.5t26.5 -144t-26.5 -144t-74 -114.5t-112.5 -76
t-141 -27.5q-77 0 -141.5 27.5t-112 76t-74 114.5t-26.5 144t26.5 144t74 114.5t112 76t141.5 27.5zM390 958l186 -134l-66 -82l-120 91l-122 -91l-64 82z" />
    <glyph glyph-name="Otilde" unicode="&#xd5;" horiz-adv-x="776" 
d="M388 102q53 0 96 20t73 53.5t46.5 78.5t16.5 96t-16.5 96t-46.5 78.5t-73 53.5t-96 20t-96 -20t-73 -53.5t-46.5 -78.5t-16.5 -96t16.5 -96t46.5 -78.5t73 -53.5t96 -20zM388 712q76 0 141 -27.5t112.5 -76t74 -114.5t26.5 -144t-26.5 -144t-74 -114.5t-112.5 -76
t-141 -27.5q-77 0 -141.5 27.5t-112 76t-74 114.5t-26.5 144t26.5 144t74 114.5t112 76t141.5 27.5zM186 836q20 52 56.5 78t74.5 26q24 0 43.5 -9t35.5 -20l31 -20q15 -9 30 -9q23 0 36 21t18 44l82 -65q-20 -56 -56 -81t-72 -25q-24 0 -43 9t-36 19l-31 20q-15 9 -30 9
q-22 0 -36 -18.5t-19 -39.5z" />
    <glyph glyph-name="Odieresis" unicode="&#xd6;" horiz-adv-x="776" 
d="M388 102q53 0 96 20t73 53.5t46.5 78.5t16.5 96t-16.5 96t-46.5 78.5t-73 53.5t-96 20t-96 -20t-73 -53.5t-46.5 -78.5t-16.5 -96t16.5 -96t46.5 -78.5t73 -53.5t96 -20zM388 712q76 0 141 -27.5t112.5 -76t74 -114.5t26.5 -144t-26.5 -144t-74 -114.5t-112.5 -76
t-141 -27.5q-77 0 -141.5 27.5t-112 76t-74 114.5t-26.5 144t26.5 144t74 114.5t112 76t141.5 27.5zM412 859q0 33 23 56t56 23t56 -23t23 -56t-23 -56t-56 -23t-56 23t-23 56zM206 859q0 33 23 56t56 23t56 -23t23 -56t-23 -56t-56 -23t-56 23t-23 56z" />
    <glyph glyph-name="multiply" unicode="&#xd7;" 
d="M29 102l153 153l-153 153l78 78l153 -153l153 153l78 -78l-153 -153l153 -153l-78 -78l-153 153l-153 -153z" />
    <glyph glyph-name="Oslash" unicode="&#xd8;" horiz-adv-x="784" 
d="M392 102q53 0 96 20t73 53.5t46.5 78.5t16.5 96q0 46 -13.5 87.5t-39.5 74.5l-312 -369q27 -20 60.5 -30.5t72.5 -10.5zM160 350q0 -47 13.5 -88.5t39.5 -74.5l312 370q-27 20 -61 30.5t-72 10.5q-53 0 -96 -20t-73 -53.5t-46.5 -78.5t-16.5 -96zM135 95
q-46 48 -71.5 113t-25.5 142q0 78 26.5 144t74 114.5t112 76t140.5 27.5q60 0 113 -17t96 -48l70 82l49 -41l-70 -83q46 -49 71.5 -114t25.5 -141q0 -78 -26.5 -144t-74 -114.5t-112.5 -76t-141 -27.5q-60 0 -112.5 17t-96.5 48l-69 -82l-49 41z" />
    <glyph glyph-name="Ugrave" unicode="&#xd9;" horiz-adv-x="688" 
d="M495 700h120v-446q0 -58 -19 -106.5t-54 -84t-85 -55.5t-112 -20t-112 20t-85 55.5t-54 84t-19 106.5v446h120v-431q0 -75 37.5 -121t112.5 -46t112.5 46t37.5 121v431zM270 992l171 -174l-77 -73l-175 168z" />
    <glyph glyph-name="Uacute" unicode="&#xda;" horiz-adv-x="688" 
d="M494 700h120v-446q0 -58 -19 -106.5t-54 -84t-85 -55.5t-112 -20t-112 20t-85 55.5t-54 84t-19 106.5v446h120v-431q0 -75 37.5 -121t112.5 -46t112.5 46t37.5 121v431zM504 912l-175 -168l-77 73l171 174z" />
    <glyph glyph-name="Ucircumflex" unicode="&#xdb;" horiz-adv-x="688" 
d="M494 700h120v-446q0 -58 -19 -106.5t-54 -84t-85 -55.5t-112 -20t-112 20t-85 55.5t-54 84t-19 106.5v446h120v-431q0 -75 37.5 -121t112.5 -46t112.5 46t37.5 121v431zM344 958l186 -134l-66 -82l-120 91l-122 -91l-64 82z" />
    <glyph glyph-name="Udieresis" unicode="&#xdc;" horiz-adv-x="688" 
d="M494 700h120v-446q0 -58 -19 -106.5t-54 -84t-85 -55.5t-112 -20t-112 20t-85 55.5t-54 84t-19 106.5v446h120v-431q0 -75 37.5 -121t112.5 -46t112.5 46t37.5 121v431zM368 859q0 33 23 56t56 23t56 -23t23 -56t-23 -56t-56 -23t-56 23t-23 56zM162 859q0 33 23 56
t56 23t56 -23t23 -56t-23 -56t-56 -23t-56 23t-23 56z" />
    <glyph glyph-name="Yacute" unicode="&#xdd;" horiz-adv-x="614" 
d="M367 0h-120v276l-239 424h132l171 -313l171 313h124l-239 -424v-276zM467 912l-175 -168l-77 73l171 174z" />
    <glyph glyph-name="Thorn" unicode="&#xde;" horiz-adv-x="545" 
d="M265 273q30 0 55.5 4.5t45 16t30.5 31t11 50.5t-11 50.5t-30.5 31t-45 16t-55.5 4.5h-71v-204h71zM74 700h120v-111h86q51 0 96 -13t78.5 -39.5t53 -66.5t19.5 -95t-19.5 -95t-53 -66.5t-78.5 -39.5t-96 -13h-86v-161h-120v700z" />
    <glyph glyph-name="germandbls" unicode="&#xdf;" horiz-adv-x="601" 
d="M64 543q0 51 17 93t47.5 71t72.5 45t91 16q46 0 87 -14t71.5 -40.5t48 -65t17.5 -86.5q0 -31 -7 -55t-18.5 -41.5t-26.5 -29.5t-31 -20q26 -6 50 -20t42 -37t29 -56.5t11 -79.5q0 -63 -21.5 -108t-59 -73t-89.5 -41t-112 -13h-20v112h15q45 0 76.5 9.5t51 27t28.5 40.5
t9 50q0 26 -8.5 48.5t-28 39.5t-53 27t-82.5 10v106q42 0 66.5 11.5t37 27t16 31.5t3.5 26q0 16 -5.5 33.5t-17.5 32.5t-31.5 24.5t-47.5 9.5q-48 0 -78 -30t-30 -81v-543h-120v543z" />
    <glyph glyph-name="agrave" unicode="&#xe0;" horiz-adv-x="536" 
d="M263 486q99 0 156 -48t57 -129v-309h-111v60q-23 -31 -63.5 -51.5t-90.5 -20.5q-34 0 -65.5 10.5t-55.5 31t-38 49.5t-14 65t14.5 65.5t40 50.5t60 32.5t74.5 11.5q33 0 68 -8.5t61 -25.5v27q0 23 -10 39t-25 25.5t-33.5 13.5t-35.5 4q-24 0 -61 -8t-79 -27l-39 99
q36 17 85.5 30t104.5 13zM244 88q42 0 69 17.5t43 37.5v49q-23 12 -52 18t-52 6q-16 0 -32 -3.5t-29.5 -11t-22 -20.5t-8.5 -32t8 -31t20.5 -18.5t27.5 -9t28 -2.5zM214 783l171 -174l-77 -73l-175 168z" />
    <glyph glyph-name="aacute" unicode="&#xe1;" horiz-adv-x="536" 
d="M425 704l-175 -168l-77 73l171 174zM263 486q99 0 156 -48t57 -129v-309h-111v60q-23 -31 -63.5 -51.5t-90.5 -20.5q-34 0 -65.5 10.5t-55.5 31t-38 49.5t-14 65t14.5 65.5t40 50.5t60 32.5t74.5 11.5q33 0 68 -8.5t61 -25.5v27q0 23 -10 39t-25 25.5t-33.5 13.5t-35.5 4
q-24 0 -61 -8t-79 -27l-39 99q36 17 85.5 30t104.5 13zM244 88q42 0 69 17.5t43 37.5v49q-23 12 -52 18t-52 6q-16 0 -32 -3.5t-29.5 -11t-22 -20.5t-8.5 -32t8 -31t20.5 -18.5t27.5 -9t28 -2.5z" />
    <glyph glyph-name="acircumflex" unicode="&#xe2;" horiz-adv-x="536" 
d="M263 486q99 0 156 -48t57 -129v-309h-111v60q-23 -31 -63.5 -51.5t-90.5 -20.5q-34 0 -65.5 10.5t-55.5 31t-38 49.5t-14 65t14.5 65.5t40 50.5t60 32.5t74.5 11.5q33 0 68 -8.5t61 -25.5v27q0 23 -10 39t-25 25.5t-33.5 13.5t-35.5 4q-24 0 -61 -8t-79 -27l-39 99
q36 17 85.5 30t104.5 13zM244 88q42 0 69 17.5t43 37.5v49q-23 12 -52 18t-52 6q-16 0 -32 -3.5t-29.5 -11t-22 -20.5t-8.5 -32t8 -31t20.5 -18.5t27.5 -9t28 -2.5zM285 740l186 -134l-66 -82l-120 91l-122 -91l-64 82z" />
    <glyph glyph-name="atilde" unicode="&#xe3;" horiz-adv-x="536" 
d="M263 486q99 0 156 -48t57 -129v-309h-111v60q-23 -31 -63.5 -51.5t-90.5 -20.5q-34 0 -65.5 10.5t-55.5 31t-38 49.5t-14 65t14.5 65.5t40 50.5t60 32.5t74.5 11.5q33 0 68 -8.5t61 -25.5v27q0 23 -10 39t-25 25.5t-33.5 13.5t-35.5 4q-24 0 -61 -8t-79 -27l-39 99
q36 17 85.5 30t104.5 13zM244 88q42 0 69 17.5t43 37.5v49q-23 12 -52 18t-52 6q-16 0 -32 -3.5t-29.5 -11t-22 -20.5t-8.5 -32t8 -31t20.5 -18.5t27.5 -9t28 -2.5zM66 615q20 52 56.5 78t74.5 26q24 0 43.5 -9t35.5 -20l31 -20q15 -9 30 -9q23 0 36 21t18 44l82 -65
q-20 -56 -56 -81t-72 -25q-24 0 -43 9t-36 20l-31 19q-15 9 -30 9q-22 0 -36 -18.5t-19 -39.5z" />
    <glyph glyph-name="adieresis" unicode="&#xe4;" horiz-adv-x="536" 
d="M263 486q99 0 156 -48t57 -129v-309h-111v60q-23 -31 -63.5 -51.5t-90.5 -20.5q-34 0 -65.5 10.5t-55.5 31t-38 49.5t-14 65t14.5 65.5t40 50.5t60 32.5t74.5 11.5q33 0 68 -8.5t61 -25.5v27q0 23 -10 39t-25 25.5t-33.5 13.5t-35.5 4q-24 0 -61 -8t-79 -27l-39 99
q36 17 85.5 30t104.5 13zM244 88q42 0 69 17.5t43 37.5v49q-23 12 -52 18t-52 6q-16 0 -32 -3.5t-29.5 -11t-22 -20.5t-8.5 -32t8 -31t20.5 -18.5t27.5 -9t28 -2.5zM301 631q0 33 23 56t56 23t56 -23t23 -56t-23 -56t-56 -23t-56 23t-23 56zM95 631q0 33 23 56t56 23t56 -23
t23 -56t-23 -56t-56 -23t-56 23t-23 56z" />
    <glyph glyph-name="aring" unicode="&#xe5;" horiz-adv-x="536" 
d="M263 486q99 0 156 -48t57 -129v-309h-111v60q-23 -31 -63.5 -51.5t-90.5 -20.5q-34 0 -65.5 10.5t-55.5 31t-38 49.5t-14 65t14.5 65.5t40 50.5t60 32.5t74.5 11.5q33 0 68 -8.5t61 -25.5v27q0 23 -10 39t-25 25.5t-33.5 13.5t-35.5 4q-24 0 -61 -8t-79 -27l-39 99
q36 17 85.5 30t104.5 13zM244 88q42 0 69 17.5t43 37.5v49q-23 12 -52 18t-52 6q-16 0 -32 -3.5t-29.5 -11t-22 -20.5t-8.5 -32t8 -31t20.5 -18.5t27.5 -9t28 -2.5zM214 647q0 -23 15.5 -38.5t38.5 -15.5t38.5 15.5t15.5 38.5t-15.5 38.5t-38.5 15.5t-38.5 -15.5
t-15.5 -38.5zM146 647q0 25 10 46.5t26.5 38t38.5 26t47 9.5t47 -9.5t38.5 -26t26.5 -38t10 -46.5t-10 -46.5t-26.5 -38t-38.5 -26t-47 -9.5t-47 9.5t-38.5 26t-26.5 38t-10 46.5z" />
    <glyph glyph-name="ae" unicode="&#xe6;" horiz-adv-x="865" 
d="M239 94q65 0 97.5 30t32.5 70h-137q-38 0 -56 -13t-18 -36q0 -16 7.5 -26t19.5 -15.5t26 -7.5t28 -2zM718 280q-1 15 -8 32.5t-21 31.5t-35.5 23.5t-51.5 9.5q-29 0 -50.5 -9.5t-35.5 -23.5t-22 -31t-9 -33h233zM604 486q50 0 93 -18t74 -50.5t48.5 -78t17.5 -100.5v-19
q0 -11 -1 -25h-351q4 -17 14.5 -34t27.5 -31t40 -23t52 -9q30 0 65 11t63 37l60 -90q-29 -24 -78 -46t-112 -22t-114.5 25t-86.5 67q-12 -17 -29.5 -33.5t-40.5 -29.5t-52 -21t-66 -8q-42 0 -77 11t-60 31.5t-39 48.5t-14 63q0 27 9.5 52t31 44t55 30.5t81.5 11.5h149
q0 23 -11.5 41t-29.5 30t-40 18.5t-44 6.5q-26 0 -61 -10t-67 -32l-53 94q32 22 81.5 40t106.5 18q38 0 68 -8.5t52 -21t36.5 -26.5t22.5 -24q32 37 77 58.5t102 21.5z" />
    <glyph glyph-name="ccedilla" unicode="&#xe7;" horiz-adv-x="497" 
d="M251 -275l-111 32l72 194l107 -12zM284 100q42 0 72 18.5t44 39.5l79 -80q-12 -15 -31 -31t-44 -29t-55 -21.5t-66 -8.5q-53 0 -99.5 19.5t-81 53t-54.5 79t-20 97.5t20 97.5t54.5 79.5t81 53t99.5 19q35 0 65 -8t54.5 -21t43.5 -28.5t31 -30.5l-83 -74q-17 20 -46 35
t-65 15q-30 0 -55 -11t-42 -30t-26.5 -43.5t-9.5 -52.5t9.5 -53t27 -43.5t42 -29.5t55.5 -11z" />
    <glyph glyph-name="egrave" unicode="&#xe8;" horiz-adv-x="533" 
d="M385 281q-1 15 -8.5 32t-22 31.5t-36.5 23.5t-52 9q-29 0 -50 -9t-35.5 -23t-22 -31t-8.5 -33h235zM266 486q49 0 92.5 -18t76 -50.5t51.5 -78t19 -100.5v-19q0 -12 -1 -26h-354q4 -17 14.5 -34t28 -30.5t40.5 -22.5t52 -9q30 0 65 11t63 37l60 -90q-29 -24 -78 -46
t-112 -22q-54 0 -100.5 19t-81 53t-54 80t-19.5 99q0 51 18 96t49.5 78.5t75.5 53t95 19.5zM213 773l171 -174l-77 -73l-175 168z" />
    <glyph glyph-name="eacute" unicode="&#xe9;" horiz-adv-x="533" 
d="M385 281q-1 15 -8.5 32t-22 31.5t-36.5 23.5t-52 9q-29 0 -50 -9t-35.5 -23t-22 -31t-8.5 -33h235zM266 486q49 0 92.5 -18t76 -50.5t51.5 -78t19 -100.5v-19q0 -12 -1 -26h-354q4 -17 14.5 -34t28 -30.5t40.5 -22.5t52 -9q30 0 65 11t63 37l60 -90q-29 -24 -78 -46
t-112 -22q-54 0 -100.5 19t-81 53t-54 80t-19.5 99q0 51 18 96t49.5 78.5t75.5 53t95 19.5zM416 694l-175 -168l-77 73l171 174z" />
    <glyph glyph-name="ecircumflex" unicode="&#xea;" horiz-adv-x="533" 
d="M271 752l186 -134l-66 -82l-120 91l-122 -91l-64 82zM385 281q-1 15 -8.5 32t-22 31.5t-36.5 23.5t-52 9q-29 0 -50 -9t-35.5 -23t-22 -31t-8.5 -33h235zM266 486q49 0 92.5 -18t76 -50.5t51.5 -78t19 -100.5v-19q0 -12 -1 -26h-354q4 -17 14.5 -34t28 -30.5t40.5 -22.5
t52 -9q30 0 65 11t63 37l60 -90q-29 -24 -78 -46t-112 -22q-54 0 -100.5 19t-81 53t-54 80t-19.5 99q0 51 18 96t49.5 78.5t75.5 53t95 19.5z" />
    <glyph glyph-name="edieresis" unicode="&#xeb;" horiz-adv-x="533" 
d="M290 631q0 33 23 56t56 23t56 -23t23 -56t-23 -56t-56 -23t-56 23t-23 56zM84 631q0 33 23 56t56 23t56 -23t23 -56t-23 -56t-56 -23t-56 23t-23 56zM385 281q-1 15 -8.5 32t-22 31.5t-36.5 23.5t-52 9q-29 0 -50 -9t-35.5 -23t-22 -31t-8.5 -33h235zM266 486
q49 0 92.5 -18t76 -50.5t51.5 -78t19 -100.5v-19q0 -12 -1 -26h-354q4 -17 14.5 -34t28 -30.5t40.5 -22.5t52 -9q30 0 65 11t63 37l60 -90q-29 -24 -78 -46t-112 -22q-54 0 -100.5 19t-81 53t-54 80t-19.5 99q0 51 18 96t49.5 78.5t75.5 53t95 19.5z" />
    <glyph glyph-name="igrave" unicode="&#xec;" horiz-adv-x="278" 
d="M81 774l171 -174l-77 -73l-175 168zM78 474h120v-474h-120v474z" />
    <glyph glyph-name="iacute" unicode="&#xed;" horiz-adv-x="278" 
d="M278 694l-175 -168l-77 73l171 174zM74 474h120v-474h-120v474z" />
    <glyph glyph-name="icircumflex" unicode="&#xee;" horiz-adv-x="308" 
d="M94 474h120v-474h-120v474zM155 752l186 -134l-66 -82l-120 91l-122 -91l-64 82z" />
    <glyph glyph-name="idieresis" unicode="&#xef;" horiz-adv-x="278" 
d="M79 474h120v-474h-120v474zM164 631q0 33 23 56t56 23t56 -23t23 -56t-23 -56t-56 -23t-56 23t-23 56zM-42 631q0 33 23 56t56 23t56 -23t23 -56t-23 -56t-56 -23t-56 23t-23 56z" />
    <glyph glyph-name="eth" unicode="&#xf0;" horiz-adv-x="577" 
d="M279 100q30 0 54 11t41.5 29.5t26.5 43.5t9 53t-9 52.5t-26.5 43.5t-41.5 30t-54 11t-54 -11t-41.5 -30t-26.5 -43.5t-9 -52.5t9 -53t26.5 -43.5t41.5 -29.5t54 -11zM81 590l101 47q-27 16 -52 28l-48 25l47 89q37 -18 78 -40.5t82 -51.5l127 59l36 -78l-88 -41
q35 -32 65.5 -70.5t52.5 -82.5t34.5 -93t12.5 -103q0 -67 -19.5 -121t-53 -91.5t-79.5 -57.5t-98 -20q-53 0 -98.5 19t-79.5 53t-53.5 79t-19.5 98q0 52 19.5 97.5t53.5 79.5t79.5 53t97.5 19q23 0 44.5 -4t42.5 -15q-20 31 -47 59.5t-55 52.5l-146 -67z" />
    <glyph glyph-name="ntilde" unicode="&#xf1;" horiz-adv-x="548" 
d="M315 486q34 0 65.5 -12t55.5 -35t38 -56t14 -76v-307h-120v277q0 51 -27.5 74t-63.5 23q-38 0 -61 -20t-36 -41v-313h-120v474h112v-69q8 13 20.5 27.5t30.5 26.5t40.5 19.5t51.5 7.5zM76 615q20 52 56.5 78t74.5 26q24 0 43.5 -9t35.5 -20l31 -20q15 -9 30 -9
q23 0 36 21t18 44l82 -65q-20 -56 -56 -81t-72 -25q-24 0 -43 9t-36 19l-31 20q-15 9 -30 9q-22 0 -36 -18.5t-19 -39.5z" />
    <glyph glyph-name="ograve" unicode="&#xf2;" horiz-adv-x="562" 
d="M281 100q30 0 54.5 11t41.5 29.5t26 43.5t9 53t-9 52.5t-26 43.5t-41.5 30t-54.5 11t-54.5 -11t-41.5 -30t-26 -43.5t-9 -52.5t9 -53t26 -43.5t41.5 -29.5t54.5 -11zM281 486q53 0 99 -19t80.5 -53t54 -79.5t19.5 -97.5t-19.5 -97.5t-54 -79t-80.5 -53t-99 -19.5
t-99 19.5t-80.5 53t-54 79t-19.5 97.5t19.5 97.5t54 79.5t80.5 53t99 19zM206 774l171 -174l-77 -73l-175 168z" />
    <glyph glyph-name="oacute" unicode="&#xf3;" horiz-adv-x="562" 
d="M437 694l-175 -168l-77 73l171 174zM281 100q30 0 54.5 11t41.5 29.5t26 43.5t9 53t-9 52.5t-26 43.5t-41.5 30t-54.5 11t-54.5 -11t-41.5 -30t-26 -43.5t-9 -52.5t9 -53t26 -43.5t41.5 -29.5t54.5 -11zM281 486q53 0 99 -19t80.5 -53t54 -79.5t19.5 -97.5t-19.5 -97.5
t-54 -79t-80.5 -53t-99 -19.5t-99 19.5t-80.5 53t-54 79t-19.5 97.5t19.5 97.5t54 79.5t80.5 53t99 19z" />
    <glyph glyph-name="ocircumflex" unicode="&#xf4;" horiz-adv-x="562" 
d="M281 100q30 0 54.5 11t41.5 29.5t26 43.5t9 53t-9 52.5t-26 43.5t-41.5 30t-54.5 11t-54.5 -11t-41.5 -30t-26 -43.5t-9 -52.5t9 -53t26 -43.5t41.5 -29.5t54.5 -11zM281 486q53 0 99 -19t80.5 -53t54 -79.5t19.5 -97.5t-19.5 -97.5t-54 -79t-80.5 -53t-99 -19.5
t-99 19.5t-80.5 53t-54 79t-19.5 97.5t19.5 97.5t54 79.5t80.5 53t99 19zM281 740l186 -134l-66 -82l-120 91l-122 -91l-64 82z" />
    <glyph glyph-name="otilde" unicode="&#xf5;" horiz-adv-x="562" 
d="M281 100q30 0 54.5 11t41.5 29.5t26 43.5t9 53t-9 52.5t-26 43.5t-41.5 30t-54.5 11t-54.5 -11t-41.5 -30t-26 -43.5t-9 -52.5t9 -53t26 -43.5t41.5 -29.5t54.5 -11zM281 486q53 0 99 -19t80.5 -53t54 -79.5t19.5 -97.5t-19.5 -97.5t-54 -79t-80.5 -53t-99 -19.5
t-99 19.5t-80.5 53t-54 79t-19.5 97.5t19.5 97.5t54 79.5t80.5 53t99 19zM80 611q20 52 56.5 78t74.5 26q24 0 43.5 -9t35.5 -20l31 -20q15 -9 30 -9q23 0 36 21t18 44l82 -65q-20 -56 -56 -81t-72 -25q-24 0 -43 9t-36 20l-31 19q-15 9 -30 9q-22 0 -36 -18.5t-19 -39.5z
" />
    <glyph glyph-name="odieresis" unicode="&#xf6;" horiz-adv-x="562" 
d="M281 100q30 0 54.5 11t41.5 29.5t26 43.5t9 53t-9 52.5t-26 43.5t-41.5 30t-54.5 11t-54.5 -11t-41.5 -30t-26 -43.5t-9 -52.5t9 -53t26 -43.5t41.5 -29.5t54.5 -11zM281 486q53 0 99 -19t80.5 -53t54 -79.5t19.5 -97.5t-19.5 -97.5t-54 -79t-80.5 -53t-99 -19.5
t-99 19.5t-80.5 53t-54 79t-19.5 97.5t19.5 97.5t54 79.5t80.5 53t99 19zM305 631q0 33 23 56t56 23t56 -23t23 -56t-23 -56t-56 -23t-56 23t-23 56zM99 631q0 33 23 56t56 23t56 -23t23 -56t-23 -56t-56 -23t-56 23t-23 56z" />
    <glyph glyph-name="divide" unicode="&#xf7;" 
d="M35 292h450v-110h-450v110zM180 407q0 33 23 56t56 23t56 -23t23 -56t-23 -56t-56 -23t-56 23t-23 56zM180 67q0 33 23 56t56 23t56 -23t23 -56t-23 -56t-56 -23t-56 23t-23 56z" />
    <glyph glyph-name="oslash" unicode="&#xf8;" horiz-adv-x="570" 
d="M154 236q0 -21 5.5 -41t16.5 -37l170 202q-26 14 -61 14q-30 0 -54.5 -11t-41.5 -30t-26 -44t-9 -53zM284 100q31 0 55.5 11t41.5 29.5t26 43.5t9 53q0 46 -23 81l-172 -203q27 -15 63 -15zM285 486q38 0 72.5 -10t63.5 -28l43 51l48 -40l-43 -51q32 -33 50.5 -76.5
t18.5 -94.5q0 -52 -19.5 -97.5t-54 -79t-80.5 -53t-99 -19.5q-38 0 -73.5 10t-64.5 29l-46 -54l-48 40l46 54q-32 33 -49.5 76.5t-17.5 93.5q0 52 19.5 97.5t54 79.5t80.5 53t99 19z" />
    <glyph glyph-name="ugrave" unicode="&#xf9;" horiz-adv-x="548" 
d="M233 -12q-33 0 -64.5 12t-55.5 35t-38.5 56t-14.5 76v307h120v-274q0 -53 24 -76.5t65 -23.5q38 0 61 17.5t38 40.5v316h120v-474h-112v69q-9 -14 -22 -28.5t-31 -26t-40.5 -19t-49.5 -7.5zM207 774l171 -174l-77 -73l-175 168z" />
    <glyph glyph-name="uacute" unicode="&#xfa;" horiz-adv-x="548" 
d="M431 694l-175 -168l-77 73l171 174zM233 -12q-33 0 -64.5 12t-55.5 35t-38.5 56t-14.5 76v307h120v-274q0 -53 24 -76.5t65 -23.5q38 0 61 17.5t38 40.5v316h120v-474h-112v69q-9 -14 -22 -28.5t-31 -26t-40.5 -19t-49.5 -7.5z" />
    <glyph glyph-name="ucircumflex" unicode="&#xfb;" horiz-adv-x="548" 
d="M233 -12q-33 0 -64.5 12t-55.5 35t-38.5 56t-14.5 76v307h120v-274q0 -53 24 -76.5t65 -23.5q38 0 61 17.5t38 40.5v316h120v-474h-112v69q-9 -14 -22 -28.5t-31 -26t-40.5 -19t-49.5 -7.5zM275 740l186 -134l-66 -82l-120 91l-122 -91l-64 82z" />
    <glyph glyph-name="udieresis" unicode="&#xfc;" horiz-adv-x="548" 
d="M233 -12q-33 0 -64.5 12t-55.5 35t-38.5 56t-14.5 76v307h120v-274q0 -53 24 -76.5t65 -23.5q38 0 61 17.5t38 40.5v316h120v-474h-112v69q-9 -14 -22 -28.5t-31 -26t-40.5 -19t-49.5 -7.5zM300 631q0 33 23 56t56 23t56 -23t23 -56t-23 -56t-56 -23t-56 23t-23 56z
M94 631q0 33 23 56t56 23t56 -23t23 -56t-23 -56t-56 -23t-56 23t-23 56z" />
    <glyph glyph-name="yacute" unicode="&#xfd;" horiz-adv-x="557" 
d="M444 694l-175 -168l-77 73l171 174zM76 -99q20 -17 35 -24t33 -7q29 0 45 16t31 54l19 49l-231 485h133l160 -347l125 347h129l-230 -580q-15 -39 -35.5 -65t-43 -42t-47 -22.5t-48.5 -6.5q-42 0 -75 15t-56 35z" />
    <glyph glyph-name="thorn" unicode="&#xfe;" horiz-adv-x="583" 
d="M194 166q15 -26 43 -46t72 -20q59 0 93.5 39t34.5 98t-34.5 98t-93.5 39q-44 0 -72 -20t-43 -46v-142zM194 756v-332q6 7 17 18t27.5 20.5t39 16.5t51.5 7q45 0 87 -18.5t73.5 -51.5t50.5 -78.5t19 -100.5t-19 -101t-50.5 -79t-73.5 -51t-87 -18q-29 0 -51.5 6.5
t-39 16.5t-27.5 20t-17 18v-279h-120v986h120z" />
    <glyph glyph-name="ydieresis" unicode="&#xff;" horiz-adv-x="557" 
d="M76 -99q20 -17 35 -24t33 -7q29 0 45 16t31 54l19 49l-231 485h133l160 -347l125 347h129l-230 -580q-15 -39 -35.5 -65t-43 -42t-47 -22.5t-48.5 -6.5q-42 0 -75 15t-56 35zM312 631q0 33 23 56t56 23t56 -23t23 -56t-23 -56t-56 -23t-56 23t-23 56zM106 631q0 33 23 56
t56 23t56 -23t23 -56t-23 -56t-56 -23t-56 23t-23 56z" />
    <glyph glyph-name="OE" unicode="&#x152;" horiz-adv-x="826" 
d="M404 588h-25q-50 0 -91.5 -19t-71.5 -51.5t-47 -76t-17 -91.5t17 -91t47 -76t71.5 -52t91.5 -19h25v476zM524 416h230v-114h-230v-190h260v-112h-405q-73 0 -136.5 26.5t-111 73.5t-74.5 111t-27 139t27 139t74.5 111t111 73.5t136.5 26.5h399v-112h-254v-172z" />
    <glyph glyph-name="oe" unicode="&#x153;" horiz-adv-x="916" 
d="M769 280q-1 15 -8 32.5t-21 31.5t-35.5 23.5t-51.5 9.5q-29 0 -50.5 -9.5t-35.5 -23.5t-22 -31t-9 -33h233zM280 100q30 0 54.5 11t41.5 29.5t26.5 43.5t9.5 53t-9.5 52.5t-26.5 43.5t-41.5 30t-54.5 11t-54.5 -11t-41.5 -30t-26.5 -43.5t-9.5 -52.5t9.5 -53t26.5 -43.5
t41.5 -29.5t54.5 -11zM654 486q51 0 93.5 -18t74 -50.5t49 -78t17.5 -100.5v-19q0 -11 -1 -25h-351q4 -17 14.5 -34t27.5 -31t40 -23t52 -9q30 0 65 11t63 37l60 -90q-29 -24 -78 -46t-112 -22q-60 0 -110.5 23t-85.5 63q-35 -41 -84.5 -63.5t-106.5 -22.5q-53 0 -99 19.5
t-80.5 53t-54 79t-19.5 97.5t19.5 97.5t54 79.5t80 53t98.5 19q57 0 106 -23t84 -62q32 39 79 62t105 23z" />
    <glyph glyph-name="Ydieresis" unicode="&#x178;" horiz-adv-x="614" 
d="M367 0h-120v276l-239 424h132l171 -313l171 313h124l-239 -424v-276zM331 851q0 33 23 56t56 23t56 -23t23 -56t-23 -56t-56 -23t-56 23t-23 56zM125 851q0 33 23 56t56 23t56 -23t23 -56t-23 -56t-56 -23t-56 23t-23 56z" />
    <glyph glyph-name="tilde" unicode="&#x2dc;" horiz-adv-x="425" 
d="M9 598q20 52 56.5 78t74.5 26q24 0 43.5 -9t35.5 -20l31 -20q15 -9 30 -9q23 0 36 21t18 44l82 -65q-20 -56 -56 -81t-72 -25q-24 0 -43 9t-36 19l-31 20q-15 9 -30 9q-22 0 -36 -18.5t-19 -39.5z" />
    <glyph glyph-name="endash" unicode="&#x2013;" horiz-adv-x="500" 
d="M0 304h500v-110h-500v110z" />
    <glyph glyph-name="emdash" unicode="&#x2014;" horiz-adv-x="1000" 
d="M0 304h1000v-110h-1000v110z" />
    <glyph glyph-name="quoteleft" unicode="&#x2018;" horiz-adv-x="186" 
d="M40 700h106v-246h-106v246z" />
    <glyph glyph-name="quoteright" unicode="&#x2019;" horiz-adv-x="186" 
d="M40 700h106v-246h-106v246z" />
    <glyph glyph-name="quotedblleft" unicode="&#x201c;" horiz-adv-x="400" 
d="M234 700h106v-248h-106v248zM60 700h106v-248h-106v248z" />
    <glyph glyph-name="quotedblright" unicode="&#x201d;" horiz-adv-x="400" 
d="M234 700h106v-248h-106v248zM60 700h106v-248h-106v248z" />
    <glyph glyph-name="quotedblbase" unicode="&#x201e;" horiz-adv-x="400" 
d="M234 108h106v-248h-106v248zM60 108h106v-248h-106v248z" />
    <glyph glyph-name="bullet" unicode="&#x2022;" horiz-adv-x="406" 
d="M59 347q0 30 11.5 56t31 45.5t45.5 31t56 11.5t56 -11.5t45.5 -31t31 -45.5t11.5 -56t-11.5 -56t-31 -45.5t-45.5 -31t-56 -11.5t-56 11.5t-45.5 31t-31 45.5t-11.5 56z" />
    <glyph glyph-name="ellipsis" unicode="&#x2026;" horiz-adv-x="1000" 
d="M741 67q0 33 23 56t56 23t56 -23t23 -56t-23 -56t-56 -23t-56 23t-23 56zM420 67q0 33 23 56t56 23t56 -23t23 -56t-23 -56t-56 -23t-56 23t-23 56zM100 67q0 33 23 56t56 23t56 -23t23 -56t-23 -56t-56 -23t-56 23t-23 56z" />
    <glyph glyph-name="guilsinglleft" unicode="&#x2039;" horiz-adv-x="322" 
d="M192 481l82 -63l-138 -173l138 -173l-82 -63l-183 236z" />
    <glyph glyph-name="guilsinglright" unicode="&#x203a;" horiz-adv-x="322" 
d="M319 245l-183 -236l-82 63l138 173l-138 173l82 63z" />
    <glyph glyph-name="Euro" unicode="&#x20ac;" horiz-adv-x="580" 
d="M22 469h88q15 53 45.5 97.5t72 77t93 50.5t109.5 18q41 0 73.5 -7.5t57.5 -16.5l-36 -102q-14 5 -37 10.5t-54 5.5q-74 0 -124 -36t-75 -97h209v-84h-229q-3 -18 -3 -35v-18q0 -9 2 -17h230v-84h-215q24 -59 73.5 -95t127.5 -36q30 0 53.5 4.5t35.5 9.5l35 -102
q-20 -9 -52 -16.5t-77 -7.5q-65 0 -118 18t-93.5 50.5t-68.5 77t-43 97.5h-80v84h76q-1 8 -1 17v18q0 9 0.5 18t1.5 17h-77v84z" />
    <glyph glyph-name="trademark" unicode="&#x2122;" horiz-adv-x="805" 
d="M443 700l115 -184l114 184h81v-370h-87v216l-110 -173l-110 173v-216h-87v370h84zM124 617h-103v83h293v-83h-103v-287h-87v287z" />
    <glyph glyph-name="circumflex" horiz-adv-x="424" 
d="M212 730l186 -134l-66 -82l-120 91l-122 -91l-64 82z" />
    <glyph glyph-name="ring" horiz-adv-x="256" 
d="M74 643q0 -23 15.5 -38.5t38.5 -15.5t38.5 15.5t15.5 38.5t-15.5 38.5t-38.5 15.5t-38.5 -15.5t-15.5 -38.5zM6 643q0 25 10 46.5t26.5 38t38.5 26t47 9.5t47 -9.5t38.5 -26t26.5 -38t10 -46.5t-10 -46.5t-26.5 -38t-38.5 -26t-47 -9.5t-47 9.5t-38.5 26t-26.5 38
t-10 46.5z" />
    <glyph glyph-name="dotlessi" horiz-adv-x="278" 
d="M79 474h120v-474h-120v474z" />
    <glyph glyph-name="oneinferior" horiz-adv-x="323" 
d="M166 313h85v-406h-93v289l-97 -80l-53 66z" />
    <glyph glyph-name="twoinferior" horiz-adv-x="362" 
d="M184 91q5 7 13 16.5t15.5 20.5t13 23.5t5.5 26.5q0 24 -17.5 40t-44.5 16q-29 0 -45 -18t-23 -41l-79 27q7 22 19 43.5t30.5 37.5t43 26t57.5 10q37 0 65 -12.5t47 -32t28.5 -44.5t9.5 -49q0 -32 -12 -57t-20 -35l-75 -100h111v-82h-294z" />
    <glyph glyph-name="threeinferior" horiz-adv-x="368" 
d="M235 193q0 20 -15.5 32.5t-42.5 12.5q-29 0 -45.5 -13.5t-24.5 -29.5l-70 38q17 34 51.5 60t90.5 26q29 0 55.5 -8.5t46.5 -24t32 -38.5t12 -52q0 -35 -15 -52t-32 -25q22 -9 38 -32t16 -59q0 -32 -13 -55.5t-34.5 -39.5t-49 -24t-56.5 -8q-31 0 -55.5 8.5t-43 22
t-31 30.5t-19.5 35l74 41q8 -23 26 -39.5t50 -16.5q26 0 44 12.5t18 35.5q0 22 -17.5 34.5t-49.5 12.5h-22v70h15q24 0 45.5 10t21.5 36z" />
    <glyph glyph-name="fourinferior" horiz-adv-x="386" 
d="M224 63v134l-84 -134h84zM212 313h98v-250h50v-78h-50v-78h-86v78h-220z" />
    <glyph glyph-name="fraction" horiz-adv-x="168" 
d="M291 731l57 -39l-471 -724l-57 39z" />
  </font>
</defs>
</svg>
